<svg width="8" height="15" viewBox="0 0 8 15" fill="none" xmlns="http://www.w3.org/2000/svg">
<path fill-rule="evenodd" clip-rule="evenodd" d="M0.306236 0.0779002C0.149529 0.167075 0 0.409885 0 0.575128C0 0.631625 0.0246416 0.737549 0.0547831 0.810581C0.0934242 0.904148 1.06127 1.89542 3.33128 4.16632L6.55291 7.38932L3.31603 10.6303C0.684433 13.2653 0.0709612 13.8971 0.0354985 14.0091C-0.111923 14.4751 0.351412 14.915 0.810141 14.7447C0.866889 14.7236 2.43885 13.1802 4.42012 11.2002C8.21659 7.40624 8.03478 7.60695 7.98103 7.26939C7.95889 7.13051 7.74768 6.91141 4.45194 3.60927C2.40221 1.55562 0.898673 0.076186 0.831462 0.0469373C0.665398 -0.0252737 0.467014 -0.0135599 0.306236 0.0779002Z" fill="#212121"/>
</svg>
