<svg width="13" height="20" viewBox="0 0 13 20" fill="none" xmlns="http://www.w3.org/2000/svg">
<path d="M5.54 19.4V0.599999H7.54V19.4H5.54ZM6.26 17.24C5.14 17.24 4.06667 17.0933 3.04 16.8C2.01333 16.4933 1.18667 16.1 0.56 15.62L1.66 13.18C2.26 13.6067 2.96667 13.96 3.78 14.24C4.60667 14.5067 5.44 14.64 6.28 14.64C6.92 14.64 7.43333 14.58 7.82 14.46C8.22 14.3267 8.51333 14.1467 8.7 13.92C8.88667 13.6933 8.98 13.4333 8.98 13.14C8.98 12.7667 8.83333 12.4733 8.54 12.26C8.24667 12.0333 7.86 11.8533 7.38 11.72C6.9 11.5733 6.36667 11.44 5.78 11.32C5.20667 11.1867 4.62667 11.0267 4.04 10.84C3.46667 10.6533 2.94 10.4133 2.46 10.12C1.98 9.82667 1.58667 9.44 1.28 8.96C0.986667 8.48 0.84 7.86667 0.84 7.12C0.84 6.32 1.05333 5.59333 1.48 4.94C1.92 4.27333 2.57333 3.74667 3.44 3.36C4.32 2.96 5.42 2.76 6.74 2.76C7.62 2.76 8.48667 2.86667 9.34 3.08C10.1933 3.28 10.9467 3.58667 11.6 4L10.6 6.46C9.94667 6.08667 9.29333 5.81333 8.64 5.64C7.98667 5.45333 7.34667 5.36 6.72 5.36C6.09333 5.36 5.58 5.43333 5.18 5.58C4.78 5.72667 4.49333 5.92 4.32 6.16C4.14667 6.38667 4.06 6.65333 4.06 6.96C4.06 7.32 4.20667 7.61333 4.5 7.84C4.79333 8.05333 5.18 8.22667 5.66 8.36C6.14 8.49333 6.66667 8.62667 7.24 8.76C7.82667 8.89333 8.40667 9.04667 8.98 9.22C9.56667 9.39333 10.1 9.62667 10.58 9.92C11.06 10.2133 11.4467 10.6 11.74 11.08C12.0467 11.56 12.2 12.1667 12.2 12.9C12.2 13.6867 11.98 14.4067 11.54 15.06C11.1 15.7133 10.44 16.24 9.56 16.64C8.69333 17.04 7.59333 17.24 6.26 17.24Z" fill="#6008F3"/>
</svg>
