<svg width="21" height="20" viewBox="0 0 21 20" fill="none" xmlns="http://www.w3.org/2000/svg">
<path fill-rule="evenodd" clip-rule="evenodd" d="M15.282 0.0539883C14.3229 0.235195 13.4772 0.677662 12.8048 1.35007C11.8659 2.28897 11.3938 3.51911 11.4565 4.86381C11.5537 6.94827 12.9684 8.65161 15.031 9.16773C15.342 9.24552 15.5148 9.26013 16.1129 9.259C16.747 9.25783 16.8693 9.24569 17.234 9.14767C17.7015 9.02211 18.3029 8.74984 18.693 8.48728C19.0575 8.24189 19.6496 7.65728 19.8967 7.29876C20.4971 6.42789 20.771 5.47886 20.7253 4.42791C20.637 2.39314 19.2187 0.64735 17.234 0.130147C16.7117 -0.00600933 15.7899 -0.0419744 15.282 0.0539883ZM16.1459 1.59111C16.3253 1.78119 16.4828 1.97948 16.4961 2.03173C16.5541 2.26105 16.3095 2.50275 16.0781 2.44468C16.0236 2.43099 15.8348 2.26892 15.6587 2.08453C15.3824 1.79534 15.3383 1.72877 15.3383 1.60036C15.3383 1.40383 15.4912 1.24599 15.6819 1.24569C15.8005 1.24553 15.8654 1.29384 16.1459 1.59111ZM18.9274 1.93292C19.2068 2.21675 19.274 2.30941 19.274 2.41098C19.274 2.59558 19.2365 2.665 19.0984 2.73642C18.9196 2.82887 18.7717 2.77871 18.5562 2.55254C18.1935 2.17183 18.1016 2.04241 18.1016 1.91245C18.1016 1.74004 18.266 1.58085 18.444 1.58085C18.5602 1.58085 18.6331 1.63394 18.9274 1.93292ZM13.8321 1.76013C13.8673 1.78818 14.0227 1.94699 14.1776 2.113C14.3998 2.35127 14.4591 2.4423 14.4591 2.54492C14.4591 2.72604 14.3985 2.82066 14.2491 2.87275C14.0664 2.93643 13.9792 2.8882 13.6227 2.52637C13.3356 2.23509 13.3096 2.19439 13.3096 2.03684C13.3096 1.90722 13.3337 1.8455 13.4075 1.78571C13.5178 1.69641 13.7359 1.68326 13.8321 1.76013ZM17.6486 3.18132C17.8255 3.37165 17.978 3.56827 17.9876 3.61822C18.0321 3.8513 17.8275 4.04942 17.5783 4.01446C17.4794 4.0006 16.9495 3.49387 16.8634 3.33096C16.7559 3.12722 16.8007 2.95761 16.9921 2.8439C17.163 2.74233 17.3117 2.81878 17.6486 3.18132ZM15.5768 3.59351C15.7565 3.77937 15.9177 3.96937 15.9349 4.01568C15.981 4.13965 15.9294 4.29238 15.8095 4.38671C15.6186 4.53681 15.5238 4.49888 15.1346 4.11662C14.797 3.78502 14.775 3.75278 14.775 3.58878C14.775 3.37785 14.898 3.25559 15.1103 3.25559C15.23 3.25559 15.2965 3.30378 15.5768 3.59351ZM13.5239 4.01969C13.9464 4.4504 13.9979 4.58207 13.8206 4.77915C13.618 5.00436 13.4134 4.93398 13.0396 4.51044C12.8054 4.24516 12.7425 4.14589 12.7425 4.04188C12.7425 3.85574 12.8851 3.71615 13.0753 3.71615C13.2071 3.71615 13.2634 3.75421 13.5239 4.01969ZM19.1502 4.76789C19.3802 5.02889 19.4414 5.12632 19.4414 5.23145C19.4414 5.41882 19.2994 5.55836 19.1086 5.55836C18.9768 5.55836 18.9205 5.52031 18.66 5.25482C18.2417 4.82839 18.1917 4.70512 18.3537 4.49917C18.5413 4.26065 18.7718 4.3384 19.1502 4.76789ZM17.0654 5.17765C17.363 5.47827 17.3899 5.51943 17.3899 5.67535C17.3899 5.80916 17.3664 5.86384 17.2796 5.93213C17.0664 6.09981 16.9454 6.04743 16.5404 5.61237C16.3097 5.36451 16.2594 5.28538 16.2594 5.17028C16.2594 4.94826 16.4385 4.78539 16.6362 4.82759C16.6938 4.8399 16.887 4.99741 17.0654 5.17765ZM15.0395 5.6202C15.3268 5.91948 15.3802 5.99698 15.3802 6.11471C15.3802 6.36052 15.1397 6.52921 14.9124 6.4428C14.8526 6.42006 14.6696 6.24936 14.5058 6.06338C14.2698 5.79563 14.2079 5.69762 14.2079 5.59219C14.2079 5.40316 14.3498 5.26528 14.5443 5.26528C14.6834 5.26528 14.7327 5.30066 15.0395 5.6202ZM9.06746 5.85668C8.58589 6.29529 8.52878 6.39846 8.64597 6.61747C8.69319 6.70569 12.5214 10.7818 13.3236 11.5979C13.6905 11.9712 13.7383 12.0061 13.8828 12.0061C14.024 12.0061 14.0785 11.9695 14.3964 11.6607C14.9602 11.1131 15.1948 11.4726 12.223 8.32927C10.832 6.85792 9.66233 5.64193 9.62376 5.62715C9.45101 5.56088 9.34354 5.60522 9.06746 5.85668ZM18.5403 6.7324C18.85 7.04022 18.8743 7.07689 18.8743 7.23696C18.8743 7.44358 18.7501 7.56877 18.5471 7.56672C18.3897 7.56512 18.3666 7.54779 18.0064 7.16151C17.7751 6.91348 17.7248 6.8346 17.7248 6.71942C17.7248 6.49706 17.9044 6.33402 18.1016 6.3774C18.1592 6.39008 18.3566 6.54981 18.5403 6.7324ZM13.5097 6.59511C13.5548 6.63514 13.702 6.79554 13.837 6.95158C14.0193 7.16247 14.0823 7.26769 14.0823 7.36169C14.0823 7.53448 13.9181 7.69366 13.7399 7.69366C13.6237 7.69366 13.5508 7.64057 13.2565 7.34159C12.9593 7.03967 12.9099 6.96921 12.9099 6.84716C12.9099 6.5275 13.2655 6.37811 13.5097 6.59511ZM16.499 7.16649C16.8051 7.47745 16.8456 7.53636 16.8456 7.67084C16.8456 7.87081 16.6942 8.02853 16.5021 8.02882C16.3834 8.02899 16.3185 7.98067 16.038 7.6834C15.8586 7.49332 15.7011 7.29503 15.6878 7.24278C15.6555 7.11508 15.7419 6.91846 15.8542 6.8642C16.0603 6.76456 16.1403 6.80211 16.499 7.16649ZM7.77786 9.94527C7.01619 10.86 5.47317 12.71 4.34895 14.0564C3.2247 15.4028 2.27039 16.5804 2.22823 16.6732C2.18607 16.766 2.1509 16.9267 2.15006 17.0303L2.14855 17.2188L1.56202 17.6983C1.05243 18.1148 0.959108 18.2105 0.850836 18.4272C0.565167 18.9988 0.802813 19.6478 1.39609 19.916C1.58303 20.0005 1.63662 20.0012 8.37956 20.0021L15.1747 20.003L15.2774 19.9002C15.3484 19.8293 15.3802 19.7509 15.3802 19.6471C15.3802 19.5433 15.3484 19.465 15.2774 19.394L15.1747 19.2913H8.49336C1.16686 19.2913 1.57872 19.3057 1.48766 19.0446C1.40903 18.8189 1.48544 18.7117 2.06532 18.2337L2.60651 17.7876L2.83185 17.8349C3.01423 17.8731 3.0929 17.8704 3.24459 17.8205C3.37283 17.7782 4.77254 16.7632 7.67901 14.6048C10.0149 12.8702 11.9616 11.4172 12.0051 11.3761C12.0819 11.3035 12.043 11.2579 10.6523 9.79061C9.86484 8.95968 9.20751 8.28036 9.19164 8.28099C9.17573 8.28166 8.53954 9.03061 7.77786 9.94527ZM9.4385 9.58955C9.54694 9.67283 9.61129 9.8295 9.58307 9.94179C9.56038 10.0323 5.84936 14.5303 5.09061 15.387C4.85468 15.6534 4.80407 15.6906 4.67712 15.6906C4.57932 15.6906 4.49914 15.6572 4.42968 15.5878C4.20325 15.3614 4.12969 15.4654 6.65918 12.4348C7.94191 10.898 9.02056 9.61761 9.05615 9.58955C9.13943 9.5239 9.353 9.5239 9.4385 9.58955Z" fill="white"/>
</svg>
