<svg width="20" height="20" viewBox="0 0 20 20" fill="none" xmlns="http://www.w3.org/2000/svg">
<path d="M18.3742 0.0578223L5.87539 3.74884C5.62168 3.82854 5.39999 3.98707 5.24256 4.20141C5.08513 4.41574 5.00016 4.6747 5 4.94063V15.152C4.59068 15.0526 4.1712 15.0012 3.75 14.9988C1.67969 14.9988 0 16.1184 0 17.4988C0 18.8793 1.67969 19.9988 3.75 19.9988C5.82031 19.9988 7.5 18.8793 7.5 17.4988V8.37071L17.5 5.44102V12.6524C17.0907 12.5527 16.6712 12.5011 16.25 12.4988C14.1797 12.4988 12.5 13.6184 12.5 14.9988C12.5 16.3793 14.1797 17.4988 16.25 17.4988C18.3203 17.4988 20 16.3797 20 14.9988V1.24884C19.9998 1.0526 19.9534 0.859169 19.8646 0.684189C19.7758 0.509209 19.647 0.3576 19.4887 0.241632C19.3304 0.125664 19.147 0.0485944 18.9534 0.0166615C18.7598 -0.0152714 18.5614 -0.00117073 18.3742 0.0578223Z" fill="white"/>
</svg>
