<svg width="41" height="40" viewBox="0 0 41 40" fill="none" xmlns="http://www.w3.org/2000/svg">
<rect x="0.675781" width="40" height="40" rx="20" fill="#D9D9D9"/>
<path d="M20.53 21.25C23.4895 21.25 25.8906 18.7305 25.8906 15.625C25.8906 12.5195 23.4895 10 20.53 10C17.5705 10 15.1694 12.5195 15.1694 15.625C15.1694 18.7305 17.5705 21.25 20.53 21.25ZM25.295 22.5H23.2438C22.4174 22.8984 21.4979 23.125 20.53 23.125C19.5621 23.125 18.6463 22.8984 17.8162 22.5H15.765C13.1331 22.5 11 24.7383 11 27.5V28.125C11 29.1602 11.8004 30 12.7869 30H28.2731C29.2596 30 30.06 29.1602 30.06 28.125V27.5C30.06 24.7383 27.9269 22.5 25.295 22.5Z" fill="#718096"/>
</svg>
