<svg width="35" height="35" viewBox="0 0 35 35" fill="none" xmlns="http://www.w3.org/2000/svg">
<rect width="34.92" height="35" rx="17.46" fill="white"/>
<path d="M27.92 11C27.15 11.35 26.32 11.58 25.46 11.69C26.34 11.16 27.02 10.32 27.34 9.31C26.51 9.81 25.59 10.16 24.62 10.36C23.83 9.5 22.72 9 21.46 9C19.11 9 17.19 10.92 17.19 13.29C17.19 13.63 17.23 13.96 17.3 14.27C13.74 14.09 10.57 12.38 8.46 9.79C8.09 10.42 7.88 11.16 7.88 11.94C7.88 13.43 8.63 14.75 9.79 15.5C9.08 15.5 8.42 15.3 7.84 15V15.03C7.84 17.11 9.32 18.85 11.28 19.24C10.6507 19.4122 9.9901 19.4362 9.35 19.31C9.62161 20.1625 10.1535 20.9084 10.871 21.4429C11.5885 21.9775 12.4554 22.2737 13.35 22.29C11.8336 23.4904 9.954 24.1393 8.02 24.13C7.68 24.13 7.34 24.11 7 24.07C8.9 25.29 11.16 26 13.58 26C21.46 26 25.79 19.46 25.79 13.79C25.79 13.6 25.79 13.42 25.78 13.23C26.62 12.63 27.34 11.87 27.92 11Z" fill="black"/>
</svg>
