<svg width="22" height="25" viewBox="0 0 22 25" fill="none" xmlns="http://www.w3.org/2000/svg">
<path fill-rule="evenodd" clip-rule="evenodd" d="M13.7879 2.04692C9.74986 3.17074 6.39213 4.1038 6.32619 4.12031L6.20636 4.1504V10.5954V17.0403L6.01902 16.9742C5.49077 16.7879 4.69498 16.7557 4.02594 16.8938C2.95903 17.114 1.91 17.8382 1.37857 18.7215C0.805381 19.6743 0.617655 20.694 0.82795 21.7129C1.00791 22.5848 1.40026 23.2852 2.04839 23.8916C2.64796 24.4525 3.27718 24.7787 4.06917 24.9392C4.58736 25.0441 5.44461 25.0097 5.95337 24.8634C7.30224 24.4755 8.32264 23.4678 8.80234 22.0501L8.91747 21.7097L8.93091 15.35C8.94351 9.37757 8.94947 8.98884 9.0286 8.96519C9.70995 8.76154 18.3823 6.2979 18.418 6.2979C18.4509 6.2979 18.4674 7.52102 18.4674 9.95941V13.6209L18.2619 13.5484C18.1489 13.5085 17.8522 13.4501 17.6025 13.4186C15.5306 13.1569 13.5379 14.6142 13.116 16.6995C12.9865 17.3399 13.0338 18.1518 13.2357 18.7544C13.7143 20.1825 14.8855 21.227 16.3384 21.5214C16.8541 21.6259 17.7591 21.5896 18.2637 21.4441C19.4787 21.0939 20.537 20.1195 20.9777 18.9454C21.2638 18.1831 21.2518 18.6231 21.2518 8.90594C21.2518 1.80893 21.2394 -0.00287865 21.1908 3.43126e-06C21.1572 0.00195739 17.8259 0.923101 13.7879 2.04692Z" fill="#6008F3"/>
</svg>
