<svg width="35" height="25" viewBox="0 0 35 25" fill="none" xmlns="http://www.w3.org/2000/svg">
<path d="M8.51082 9.89154C11.2378 9.89154 13.4566 7.67279 13.4566 4.94577C13.4566 2.21875 11.2378 0 8.51082 0C5.7838 0 3.56543 2.21875 3.56543 4.94577C3.56543 7.67279 5.7838 9.89154 8.51082 9.89154Z" fill="#6008F3"/>
<path d="M13.0944 9.68408C11.9062 10.8337 10.291 11.5455 8.51094 11.5455C6.73087 11.5455 5.11606 10.8337 3.92746 9.68408C2.12546 10.1303 0.783691 11.7565 0.783691 13.6946V24.9998H16.2382V13.6946C16.2382 11.7565 14.8964 10.1303 13.0944 9.68408Z" fill="#6008F3"/>
<path d="M19.3531 10.124C21.6649 10.124 23.5459 8.24338 23.5459 5.93159C23.5459 3.61981 21.6649 1.73877 19.3531 1.73877C17.0413 1.73877 15.1606 3.61981 15.1606 5.93159C15.1606 8.24338 17.0413 10.124 19.3531 10.124Z" fill="#6008F3"/>
<path d="M23.227 10.2993C22.1942 11.2164 20.8396 11.7784 19.3534 11.7784C18.6825 11.7784 18.04 11.6592 17.4395 11.4501C17.731 12.1406 17.8929 12.8993 17.8929 13.6949V23.262H25.965V14.1866C25.9646 12.3971 24.8203 10.8741 23.227 10.2993Z" fill="#6008F3"/>
<path d="M25.1533 6.63776C25.2119 8.647 26.8608 10.2648 28.884 10.2648C30.9443 10.2648 32.6204 8.58876 32.6204 6.52885C32.6204 4.46855 30.9443 2.79248 28.884 2.79248C27.0279 2.79248 25.488 4.15467 25.2002 5.93095V5.93171C25.2006 6.17072 25.1817 6.40556 25.1533 6.63776Z" fill="#6008F3"/>
<path d="M32.3137 10.6841C31.3811 11.4548 30.1861 11.9188 28.8844 11.9188C28.2158 11.9188 27.5778 11.791 26.9863 11.5671C27.3879 12.3549 27.6194 13.2432 27.6194 14.186V21.3808H34.8195V14.4844C34.8195 12.7822 33.7855 11.3183 32.3137 10.6841Z" fill="#6008F3"/>
</svg>
