<svg width="19" height="25" viewBox="0 0 19 25" fill="none" xmlns="http://www.w3.org/2000/svg">
<path d="M8.4999 24.4956C1.40527 14.2105 0.0883789 13.1549 0.0883789 9.375C0.0883789 4.19731 4.28569 0 9.46338 0C14.6411 0 18.8384 4.19731 18.8384 9.375C18.8384 13.1549 17.5215 14.2105 10.4269 24.4956C9.96128 25.1682 8.96543 25.1681 8.4999 24.4956ZM9.46338 13.2812C11.6208 13.2812 13.3696 11.5324 13.3696 9.375C13.3696 7.21763 11.6208 5.46875 9.46338 5.46875C7.30601 5.46875 5.55713 7.21763 5.55713 9.375C5.55713 11.5324 7.30601 13.2812 9.46338 13.2812Z" fill="#6008F3"/>
</svg>
