<svg width="15" height="16" viewBox="0 0 15 16" fill="none" xmlns="http://www.w3.org/2000/svg">
<path d="M3.18309 13.728L5.43839 11.6824C5.51761 11.6041 5.62431 11.5598 5.73573 11.5591H13.9007C13.9651 11.5591 14.027 11.5339 14.0731 11.489C14.1192 11.444 14.1459 11.3828 14.1475 11.3185V1.09804C14.1459 1.03367 14.1192 0.972486 14.0731 0.927537C14.027 0.882588 13.9651 0.85744 13.9007 0.85746H1.09804C1.03531 0.859069 0.975691 0.885125 0.931899 0.930069C0.888107 0.975014 0.863608 1.03529 0.863629 1.09804V11.3209C0.863618 11.3531 0.87004 11.3849 0.882514 11.4145C0.894988 11.4441 0.913263 11.4709 0.936261 11.4933C0.959258 11.5157 0.986513 11.5333 1.01642 11.545C1.04632 11.5567 1.07827 11.5623 1.11038 11.5615H2.75498C2.86863 11.5618 2.97752 11.6072 3.05777 11.6877C3.13802 11.7682 3.18309 11.8772 3.18309 11.9909V13.728ZM3.32744 8.1761C3.21291 8.1761 3.10308 8.22159 3.0221 8.30257C2.94112 8.38355 2.89562 8.49339 2.89562 8.60791C2.89562 8.72244 2.94112 8.83227 3.0221 8.91325C3.10308 8.99423 3.21291 9.03973 3.32744 9.03973H8.38954C8.50406 9.03973 8.6139 8.99423 8.69488 8.91325C8.77586 8.83227 8.82135 8.72244 8.82135 8.60791C8.82135 8.49339 8.77586 8.38355 8.69488 8.30257C8.6139 8.22159 8.50406 8.1761 8.38954 8.1761H3.32744ZM3.32744 3.25835C3.21291 3.25835 3.10308 3.30384 3.0221 3.38482C2.94112 3.4658 2.89562 3.57564 2.89562 3.69016C2.89562 3.80469 2.94112 3.91452 3.0221 3.9955C3.10308 4.07648 3.21291 4.12198 3.32744 4.12198H11.6824C11.7407 4.1251 11.7989 4.11633 11.8537 4.0962C11.9084 4.07606 11.9585 4.04499 12.0008 4.00487C12.0431 3.96475 12.0768 3.91643 12.0999 3.86285C12.1229 3.80928 12.1348 3.75157 12.1348 3.69325C12.1348 3.63493 12.1229 3.57722 12.0999 3.52364C12.0768 3.47006 12.0431 3.42174 12.0008 3.38162C11.9585 3.34151 11.9084 3.31043 11.8537 3.2903C11.7989 3.27016 11.7407 3.26139 11.6824 3.26452L3.32744 3.25835ZM3.32744 5.71722C3.21771 5.72311 3.11441 5.77085 3.03882 5.85061C2.96323 5.93036 2.9211 6.03607 2.9211 6.14595C2.9211 6.25584 2.96323 6.36154 3.03882 6.4413C3.11441 6.52106 3.21771 6.56879 3.32744 6.57468H10.8151C10.9248 6.56879 11.0281 6.52106 11.1037 6.4413C11.1793 6.36154 11.2214 6.25584 11.2214 6.14595C11.2214 6.03607 11.1793 5.93036 11.1037 5.85061C11.0281 5.77085 10.9248 5.72311 10.8151 5.71722H3.32744ZM5.90599 12.419L3.06835 15.0185C3.01025 15.0827 2.93411 15.1278 2.84991 15.148C2.76571 15.1681 2.67738 15.1623 2.59653 15.1313C2.51568 15.1004 2.44607 15.0457 2.39685 14.9745C2.34762 14.9033 2.32108 14.8188 2.32069 14.7323V12.419H1.09804C0.806924 12.4187 0.527822 12.3029 0.32197 12.097C0.116118 11.8912 0.00032655 11.6121 0 11.3209L0 1.09804C0.00032655 0.806924 0.116118 0.527822 0.32197 0.32197C0.527822 0.116118 0.806924 0.00032655 1.09804 0L13.9007 0C14.1919 0.000650394 14.4709 0.116506 14.6769 0.322253C14.8829 0.528 14.999 0.806911 15 1.09804V11.3209C14.999 11.6121 14.8829 11.891 14.6769 12.0967C14.4709 12.3025 14.1919 12.4183 13.9007 12.419H5.90599Z" fill="#B4B4B4"/>
</svg>
