<svg width="35" height="35" viewBox="0 0 35 35" fill="none" xmlns="http://www.w3.org/2000/svg">
<rect width="35" height="35" rx="17.5" fill="white"/>
<path d="M17.375 8C19.9222 8 20.24 8.00937 21.2394 8.05625C22.2378 8.10312 22.9175 8.25969 23.5156 8.49219C24.1344 8.73031 24.6556 9.05281 25.1769 9.57313C25.6536 10.0418 26.0225 10.6087 26.2578 11.2344C26.4894 11.8316 26.6469 12.5122 26.6938 13.5106C26.7378 14.51 26.75 14.8278 26.75 17.375C26.75 19.9222 26.7406 20.24 26.6938 21.2394C26.6469 22.2378 26.4894 22.9175 26.2578 23.5156C26.0231 24.1417 25.6542 24.7087 25.1769 25.1769C24.7081 25.6534 24.1412 26.0223 23.5156 26.2578C22.9184 26.4894 22.2378 26.6469 21.2394 26.6938C20.24 26.7378 19.9222 26.75 17.375 26.75C14.8278 26.75 14.51 26.7406 13.5106 26.6938C12.5122 26.6469 11.8325 26.4894 11.2344 26.2578C10.6084 26.0229 10.0414 25.654 9.57313 25.1769C9.09632 24.7083 8.72744 24.1414 8.49219 23.5156C8.25969 22.9184 8.10312 22.2378 8.05625 21.2394C8.01219 20.24 8 19.9222 8 17.375C8 14.8278 8.00937 14.51 8.05625 13.5106C8.10312 12.5113 8.25969 11.8325 8.49219 11.2344C8.72678 10.6083 9.09575 10.0412 9.57313 9.57313C10.0416 9.09615 10.6085 8.72725 11.2344 8.49219C11.8325 8.25969 12.5113 8.10312 13.5106 8.05625C14.51 8.01219 14.8278 8 17.375 8ZM17.375 12.6875C16.1318 12.6875 14.9395 13.1814 14.0604 14.0604C13.1814 14.9395 12.6875 16.1318 12.6875 17.375C12.6875 18.6182 13.1814 19.8105 14.0604 20.6896C14.9395 21.5686 16.1318 22.0625 17.375 22.0625C18.6182 22.0625 19.8105 21.5686 20.6896 20.6896C21.5686 19.8105 22.0625 18.6182 22.0625 17.375C22.0625 16.1318 21.5686 14.9395 20.6896 14.0604C19.8105 13.1814 18.6182 12.6875 17.375 12.6875ZM23.4688 12.4531C23.4688 12.1423 23.3453 11.8443 23.1255 11.6245C22.9057 11.4047 22.6077 11.2812 22.2969 11.2812C21.9861 11.2812 21.688 11.4047 21.4682 11.6245C21.2485 11.8443 21.125 12.1423 21.125 12.4531C21.125 12.7639 21.2485 13.062 21.4682 13.2818C21.688 13.5015 21.9861 13.625 22.2969 13.625C22.6077 13.625 22.9057 13.5015 23.1255 13.2818C23.3453 13.062 23.4688 12.7639 23.4688 12.4531ZM17.375 14.5625C18.1209 14.5625 18.8363 14.8588 19.3637 15.3863C19.8912 15.9137 20.1875 16.6291 20.1875 17.375C20.1875 18.1209 19.8912 18.8363 19.3637 19.3637C18.8363 19.8912 18.1209 20.1875 17.375 20.1875C16.6291 20.1875 15.9137 19.8912 15.3863 19.3637C14.8588 18.8363 14.5625 18.1209 14.5625 17.375C14.5625 16.6291 14.8588 15.9137 15.3863 15.3863C15.9137 14.8588 16.6291 14.5625 17.375 14.5625Z" fill="black"/>
</svg>
