<svg width="33" height="35" viewBox="0 0 33 35" fill="none" xmlns="http://www.w3.org/2000/svg">
<rect width="33.0011" height="34.7" rx="16.5006" fill="white"/>
<path d="M26.5581 12.295C26.4386 11.851 26.2045 11.4462 25.8794 11.1211C25.5543 10.796 25.1495 10.562 24.7056 10.4425C23.0706 10 16.5006 10 16.5006 10C16.5006 10 9.93056 10 8.29556 10.4425C7.85159 10.562 7.4468 10.796 7.12169 11.1211C6.79658 11.4462 6.56257 11.851 6.44306 12.295C6.13777 13.9625 5.98962 15.6549 6.00056 17.35C5.98962 19.0451 6.13777 20.7376 6.44306 22.405C6.56257 22.849 6.79658 23.2538 7.12169 23.5789C7.4468 23.904 7.85159 24.138 8.29556 24.2575C9.93056 24.7 16.5006 24.7 16.5006 24.7C16.5006 24.7 23.0706 24.7 24.7056 24.2575C25.1495 24.138 25.5543 23.904 25.8794 23.5789C26.2045 23.2538 26.4386 22.849 26.5581 22.405C26.8634 20.7376 27.0115 19.0451 27.0006 17.35C27.0115 15.6549 26.8634 13.9625 26.5581 12.295ZM14.4006 20.5V14.2L19.8531 17.35L14.4006 20.5Z" fill="black"/>
</svg>
