<svg width="16" height="15" viewBox="0 0 16 15" fill="none" xmlns="http://www.w3.org/2000/svg">
<path d="M5.36793 4.67049L5.11062 4.70669L0.865763 5.30388L0.865411 5.30393C0.494241 5.35588 0.397006 5.76172 0.624219 5.97521L0.624363 5.97535L3.69542 8.86319L3.8926 9.04861L3.84516 9.31509L3.11886 13.3942C3.11884 13.3943 3.11882 13.3944 3.1188 13.3945C3.1188 13.3945 3.1188 13.3945 3.11879 13.3945C3.06806 13.6825 3.4018 13.9832 3.74693 13.8066L3.74848 13.8058L7.5459 11.8797L7.77208 11.7649L7.99826 11.8797L11.7957 13.8058L11.7958 13.8059C12.1443 13.9827 12.4756 13.6797 12.4254 13.3945C12.4254 13.3945 12.4254 13.3945 12.4254 13.3945C12.4253 13.3944 12.4253 13.3943 12.4253 13.3942L5.36793 4.67049ZM5.36793 4.67049L5.48618 4.43911M5.36793 4.67049L5.48618 4.43911M5.48618 4.43911L7.38334 0.72716L5.48618 4.43911Z" stroke="#F1A615"/>
</svg>
