<svg width="81" height="59" viewBox="0 0 81 59" fill="none" xmlns="http://www.w3.org/2000/svg">
<path d="M36.875 58.5H20.5625C15.0646 58.5 10.3678 56.5969 6.47212 52.7906C2.57404 48.9844 0.625 44.3323 0.625 38.8344C0.625 34.1219 2.04479 29.9229 4.88437 26.2375C7.72396 22.5521 11.4396 20.1958 16.0312 19.1687C17.5417 13.6104 20.5625 9.10938 25.0938 5.66563C29.625 2.22188 34.7604 0.5 40.5 0.5C47.5687 0.5 53.5645 2.96138 58.4873 7.88413C63.4124 12.8093 65.875 18.8062 65.875 25.875C70.0437 26.3583 73.5032 28.1551 76.2534 31.2654C79.0011 34.378 80.375 38.0187 80.375 42.1875C80.375 46.7188 78.7897 50.5709 75.619 53.744C72.4459 56.9147 68.5938 58.5 64.0625 58.5H44.125V32.5813L49.925 38.2L55 33.125L40.5 18.625L26 33.125L31.075 38.2L36.875 32.5813V58.5Z" fill="url(#paint0_linear_342_3605)"/>
<defs>
<linearGradient id="paint0_linear_342_3605" x1="40.5" y1="0.5" x2="40.5" y2="58.5" gradientUnits="userSpaceOnUse">
<stop stop-color="#622FB0"/>
<stop offset="1" stop-color="#6108F3"/>
</linearGradient>
</defs>
</svg>
