<svg width="801" height="190" viewBox="0 0 801 190" fill="none" xmlns="http://www.w3.org/2000/svg">
<mask id="mask0_436_13" style="mask-type:luminance" maskUnits="userSpaceOnUse" x="0" y="0" width="801" height="190">
<path d="M801 0H0V190H801V0Z" fill="white"/>
<path d="M43.7095 71.1399C38.5795 71.1399 33.7978 70.3166 29.3645 68.6699C24.9945 66.9599 21.1945 64.5532 17.9645 61.4499C14.7345 58.3466 12.2012 54.7049 10.3645 50.5249C8.5912 46.3449 7.70453 41.7532 7.70453 36.7499C7.70453 31.7466 8.5912 27.1549 10.3645 22.9749C12.2012 18.7949 14.7345 15.1532 17.9645 12.0499C21.2578 8.94652 25.0895 6.57152 29.4595 4.92485C33.8295 3.21486 38.6112 2.35986 43.8045 2.35986C49.5678 2.35986 54.7612 3.37319 59.3845 5.39986C64.0712 7.36319 67.9978 10.2765 71.1645 14.1399L61.2845 23.2599C59.0045 20.6632 56.4712 18.7316 53.6845 17.4649C50.8978 16.1349 47.8578 15.4699 44.5645 15.4699C41.4612 15.4699 38.6112 15.9766 36.0145 16.9899C33.4178 18.0032 31.1695 19.4599 29.2695 21.3599C27.3695 23.2599 25.8812 25.5082 24.8045 28.1049C23.7912 30.7016 23.2845 33.5832 23.2845 36.7499C23.2845 39.9166 23.7912 42.7982 24.8045 45.3949C25.8812 47.9916 27.3695 50.2399 29.2695 52.1399C31.1695 54.0399 33.4178 55.4966 36.0145 56.5099C38.6112 57.5232 41.4612 58.0299 44.5645 58.0299C47.8578 58.0299 50.8978 57.3966 53.6845 56.1299C56.4712 54.7999 59.0045 52.8049 61.2845 50.1449L71.1645 59.2649C67.9978 63.1282 64.0712 66.0732 59.3845 68.0999C54.7612 70.1266 49.5362 71.1399 43.7095 71.1399ZM81.5574 69.9999V3.49986H96.9474V57.4599H130.293V69.9999H81.5574ZM167.695 71.1399C158.258 71.1399 150.88 68.5116 145.56 63.2549C140.24 57.9982 137.58 50.4932 137.58 40.7399V3.49986H152.97V40.1699C152.97 46.5032 154.268 51.0632 156.865 53.8499C159.461 56.6366 163.103 58.0299 167.79 58.0299C172.476 58.0299 176.118 56.6366 178.715 53.8499C181.311 51.0632 182.61 46.5032 182.61 40.1699V3.49986H197.81V40.7399C197.81 50.4932 195.15 57.9982 189.83 63.2549C184.51 68.5116 177.131 71.1399 167.695 71.1399ZM213.018 69.9999V3.49986H245.508C253.868 3.49986 260.138 5.08319 264.318 8.24986C268.561 11.4165 270.683 15.5966 270.683 20.7899C270.683 24.2732 269.828 27.3132 268.118 29.9099C266.408 32.4432 264.064 34.4066 261.088 35.7999C258.111 37.1932 254.691 37.8899 250.828 37.8899L252.633 33.9949C256.813 33.9949 260.518 34.6916 263.748 36.0849C266.978 37.4149 269.479 39.4099 271.253 42.0699C273.089 44.7299 274.008 47.9916 274.008 51.8549C274.008 57.5549 271.759 62.0199 267.263 65.2499C262.766 68.4166 256.148 69.9999 247.408 69.9999H213.018ZM228.313 58.4099H246.268C250.258 58.4099 253.266 57.7766 255.293 56.5099C257.383 55.1799 258.428 53.0899 258.428 50.2399C258.428 47.4532 257.383 45.3949 255.293 44.0649C253.266 42.6716 250.258 41.9749 246.268 41.9749H227.173V30.7649H243.608C247.344 30.7649 250.194 30.1316 252.158 28.8649C254.184 27.5349 255.198 25.5399 255.198 22.8799C255.198 20.2832 254.184 18.3516 252.158 17.0849C250.194 15.7549 247.344 15.0899 243.608 15.0899H228.313V58.4099ZM307.509 71.1399C302.189 71.1399 297.091 70.4432 292.214 69.0499C287.338 67.5932 283.411 65.7249 280.434 63.4449L285.659 51.8549C288.509 53.8816 291.866 55.5599 295.729 56.8899C299.656 58.1566 303.614 58.7899 307.604 58.7899C310.644 58.7899 313.083 58.5049 314.919 57.9349C316.819 57.3016 318.213 56.4466 319.099 55.3699C319.986 54.2932 320.429 53.0582 320.429 51.6649C320.429 49.8916 319.733 48.4982 318.339 47.4849C316.946 46.4082 315.109 45.5532 312.829 44.9199C310.549 44.2232 308.016 43.5899 305.229 43.0199C302.506 42.3866 299.751 41.6266 296.964 40.7399C294.241 39.8532 291.739 38.7132 289.459 37.3199C287.179 35.9266 285.311 34.0899 283.854 31.8099C282.461 29.5299 281.764 26.6166 281.764 23.0699C281.764 19.2699 282.778 15.8182 284.804 12.7149C286.894 9.54819 289.998 7.04652 294.114 5.20986C298.294 3.30986 303.519 2.35986 309.789 2.35986C313.969 2.35986 318.086 2.86653 322.139 3.87986C326.193 4.82986 329.771 6.28652 332.874 8.24986L328.124 19.9349C325.021 18.1616 321.918 16.8632 318.814 16.0399C315.711 15.1532 312.671 14.7099 309.694 14.7099C306.718 14.7099 304.279 15.0582 302.379 15.7549C300.479 16.4516 299.118 17.3699 298.294 18.5099C297.471 19.5866 297.059 20.8532 297.059 22.3099C297.059 24.0199 297.756 25.4132 299.149 26.4899C300.543 27.5032 302.379 28.3266 304.659 28.9599C306.939 29.5932 309.441 30.2266 312.164 30.8599C314.951 31.4932 317.706 32.2216 320.429 33.0449C323.216 33.8682 325.749 34.9766 328.029 36.3699C330.309 37.7632 332.146 39.5999 333.539 41.8799C334.996 44.1599 335.724 47.0416 335.724 50.5249C335.724 54.2616 334.679 57.6816 332.589 60.7849C330.499 63.8882 327.364 66.3899 323.184 68.2899C319.068 70.1899 313.843 71.1399 307.509 71.1399ZM344.486 84.6299L350.756 61.8299L352.846 70.3799C350.123 70.3799 347.874 69.5882 346.101 68.0049C344.391 66.4216 343.536 64.2366 343.536 61.4499C343.536 58.6632 344.423 56.4466 346.196 54.7999C347.969 53.1532 350.154 52.3299 352.751 52.3299C355.411 52.3299 357.596 53.1849 359.306 54.8949C361.016 56.5416 361.871 58.7266 361.871 61.4499C361.871 62.2732 361.808 63.0966 361.681 63.9199C361.554 64.6799 361.301 65.6299 360.921 66.7699C360.604 67.8466 360.066 69.2399 359.306 70.9499L353.891 84.6299H344.486ZM419.814 69.9999L391.124 3.49986H407.749L432.829 62.3999H423.044L448.504 3.49986H463.799L435.014 69.9999H419.814ZM483.506 30.2899H515.521V42.2599H483.506V30.2899ZM484.646 57.6499H520.841V69.9999H469.351V3.49986H519.606V15.8499H484.646V57.6499ZM533.086 69.9999V3.49986H545.815L585.051 51.3799H578.875V3.49986H594.076V69.9999H581.44L542.111 22.1199H548.286V69.9999H533.086ZM639.354 71.1399C629.917 71.1399 622.539 68.5116 617.219 63.2549C611.899 57.9982 609.24 50.4932 609.24 40.7399V3.49986H624.63V40.1699C624.63 46.5032 625.928 51.0632 628.525 53.8499C631.121 56.6366 634.763 58.0299 639.45 58.0299C644.136 58.0299 647.778 56.6366 650.375 53.8499C652.971 51.0632 654.27 46.5032 654.27 40.1699V3.49986H669.469V40.7399C669.469 50.4932 666.81 57.9982 661.49 63.2549C656.17 68.5116 648.79 71.1399 639.354 71.1399ZM698.833 30.2899H730.848V42.2599H698.833V30.2899ZM699.973 57.6499H736.168V69.9999H684.677V3.49986H734.932V15.8499H699.973V57.6499ZM770.263 71.1399C764.943 71.1399 759.845 70.4432 754.968 69.0499C750.092 67.5932 746.164 65.7249 743.188 63.4449L748.413 51.8549C751.263 53.8816 754.619 55.5599 758.482 56.8899C762.409 58.1566 766.367 58.7899 770.357 58.7899C773.397 58.7899 775.836 58.5049 777.672 57.9349C779.572 57.3016 780.967 56.4466 781.853 55.3699C782.74 54.2932 783.182 53.0582 783.182 51.6649C783.182 49.8916 782.487 48.4982 781.093 47.4849C779.7 46.4082 777.863 45.5532 775.583 44.9199C773.303 44.2232 770.769 43.5899 767.982 43.0199C765.259 42.3866 762.505 41.6266 759.718 40.7399C756.995 39.8532 754.493 38.7132 752.213 37.3199C749.933 35.9266 748.064 34.0899 746.607 31.8099C745.214 29.5299 744.518 26.6166 744.518 23.0699C744.518 19.2699 745.531 15.8182 747.557 12.7149C749.647 9.54819 752.751 7.04652 756.867 5.20986C761.047 3.30986 766.273 2.35986 772.543 2.35986C776.723 2.35986 780.84 2.86653 784.893 3.87986C788.947 4.82986 792.525 6.28652 795.628 8.24986L790.878 19.9349C787.775 18.1616 784.672 16.8632 781.568 16.0399C778.465 15.1532 775.425 14.7099 772.448 14.7099C769.472 14.7099 767.033 15.0582 765.133 15.7549C763.233 16.4516 761.871 17.3699 761.047 18.5099C760.224 19.5866 759.812 20.8532 759.812 22.3099C759.812 24.0199 760.51 25.4132 761.903 26.4899C763.297 27.5032 765.133 28.3266 767.413 28.9599C769.693 29.5932 772.195 30.2266 774.918 30.8599C777.705 31.4932 780.459 32.2216 783.182 33.0449C785.969 33.8682 788.503 34.9766 790.783 36.3699C793.063 37.7632 794.9 39.5999 796.293 41.8799C797.75 44.1599 798.478 47.0416 798.478 50.5249C798.478 54.2616 797.433 57.6816 795.343 60.7849C793.253 63.8882 790.117 66.3899 785.938 68.2899C781.821 70.1899 776.597 71.1399 770.263 71.1399ZM3.14453 187L32.7845 120.5H47.9845L77.7195 187H61.5695L37.2495 128.29H43.3295L18.9145 187H3.14453ZM17.9645 172.75L22.0495 161.065H56.2495L60.4295 172.75H17.9645ZM84.6189 187V120.5H97.3489L136.584 168.38H130.409V120.5H145.609V187H132.974L93.6439 139.12H99.8189V187H84.6189ZM161.343 187V120.5H191.553C198.773 120.5 205.138 121.893 210.648 124.68C216.158 127.403 220.465 131.235 223.568 136.175C226.671 141.115 228.223 146.973 228.223 153.75C228.223 160.463 226.671 166.322 223.568 171.325C220.465 176.265 216.158 180.128 210.648 182.915C205.138 185.638 198.773 187 191.553 187H161.343ZM176.733 174.365H190.793C195.226 174.365 199.058 173.542 202.288 171.895C205.581 170.185 208.115 167.778 209.888 164.675C211.725 161.572 212.643 157.93 212.643 153.75C212.643 149.507 211.725 145.865 209.888 142.825C208.115 139.722 205.581 137.347 202.288 135.7C199.058 133.99 195.226 133.135 190.793 133.135H176.733V174.365ZM280.984 150.425H312.904V162.775H280.984V150.425ZM282.124 187H266.734V120.5H316.989V132.85H282.124V187ZM341.562 147.29H373.577V159.26H341.562V147.29ZM342.702 174.65H378.897V187H327.407V120.5H377.662V132.85H342.702V174.65ZM412.993 188.14C407.673 188.14 402.574 187.443 397.698 186.05C392.821 184.593 388.894 182.725 385.918 180.445L391.143 168.855C393.993 170.882 397.349 172.56 401.213 173.89C405.139 175.157 409.098 175.79 413.088 175.79C416.128 175.79 418.566 175.505 420.403 174.935C422.303 174.302 423.696 173.447 424.583 172.37C425.469 171.293 425.913 170.058 425.913 168.665C425.913 166.892 425.216 165.498 423.823 164.485C422.429 163.408 420.593 162.553 418.313 161.92C416.033 161.223 413.499 160.59 410.713 160.02C407.989 159.387 405.234 158.627 402.448 157.74C399.724 156.853 397.223 155.713 394.943 154.32C392.663 152.927 390.794 151.09 389.338 148.81C387.944 146.53 387.248 143.617 387.248 140.07C387.248 136.27 388.261 132.818 390.288 129.715C392.378 126.548 395.481 124.047 399.598 122.21C403.778 120.31 409.003 119.36 415.273 119.36C419.453 119.36 423.569 119.867 427.623 120.88C431.676 121.83 435.254 123.287 438.358 125.25L433.608 136.935C430.504 135.162 427.401 133.863 424.298 133.04C421.194 132.153 418.154 131.71 415.178 131.71C412.201 131.71 409.763 132.058 407.863 132.755C405.963 133.452 404.601 134.37 403.778 135.51C402.954 136.587 402.543 137.853 402.543 139.31C402.543 141.02 403.239 142.413 404.633 143.49C406.026 144.503 407.863 145.327 410.143 145.96C412.423 146.593 414.924 147.227 417.648 147.86C420.434 148.493 423.189 149.222 425.913 150.045C428.699 150.868 431.233 151.977 433.513 153.37C435.793 154.763 437.629 156.6 439.023 158.88C440.479 161.16 441.208 164.042 441.208 167.525C441.208 171.262 440.163 174.682 438.073 177.785C435.983 180.888 432.848 183.39 428.668 185.29C424.551 187.19 419.326 188.14 412.993 188.14ZM464.571 187V133.04H443.291V120.5H501.241V133.04H479.961V187H464.571ZM509.522 187V120.5H524.911V187H509.522ZM560.365 187L531.674 120.5H548.299L573.38 179.4H563.594L589.055 120.5H604.349L575.565 187H560.365ZM598.935 187L628.576 120.5H643.776L673.51 187H657.361L633.041 128.29H639.12L614.706 187H598.935ZM613.755 172.75L617.841 161.065H652.041L656.221 172.75H613.755ZM680.409 187V120.5H695.799V174.46H729.145V187H680.409ZM759.315 188.14C753.995 188.14 748.898 187.443 744.021 186.05C739.144 184.593 735.218 182.725 732.241 180.445L737.466 168.855C740.316 170.882 743.673 172.56 747.536 173.89C751.463 175.157 755.421 175.79 759.411 175.79C762.451 175.79 764.889 175.505 766.726 174.935C768.626 174.302 770.019 173.447 770.906 172.37C771.793 171.293 772.236 170.058 772.236 168.665C772.236 166.892 771.539 165.498 770.146 164.485C768.753 163.408 766.915 162.553 764.635 161.92C762.355 161.223 759.823 160.59 757.036 160.02C754.313 159.387 751.558 158.627 748.771 157.74C746.048 156.853 743.546 155.713 741.266 154.32C738.986 152.927 737.118 151.09 735.661 148.81C734.268 146.53 733.57 143.617 733.57 140.07C733.57 136.27 734.584 132.818 736.611 129.715C738.701 126.548 741.804 124.047 745.921 122.21C750.101 120.31 755.326 119.36 761.596 119.36C765.776 119.36 769.892 119.867 773.945 120.88C777.998 121.83 781.578 123.287 784.681 125.25L779.931 136.935C776.828 135.162 773.723 133.863 770.62 133.04C767.517 132.153 764.477 131.71 761.5 131.71C758.523 131.71 756.085 132.058 754.185 132.755C752.285 133.452 750.924 134.37 750.101 135.51C749.278 136.587 748.866 137.853 748.866 139.31C748.866 141.02 749.563 142.413 750.956 143.49C752.349 144.503 754.186 145.327 756.466 145.96C758.746 146.593 761.248 147.227 763.971 147.86C766.758 148.493 769.513 149.222 772.236 150.045C775.023 150.868 777.556 151.977 779.836 153.37C782.116 154.763 783.953 156.6 785.346 158.88C786.803 161.16 787.531 164.042 787.531 167.525C787.531 171.262 786.486 174.682 784.396 177.785C782.306 180.888 779.171 183.39 774.991 185.29C770.874 187.19 765.648 188.14 759.315 188.14Z" fill="black"/>
</mask>
<g mask="url(#mask0_436_13)">
<path d="M29.3654 68.6701L28.7415 70.2645L28.7553 70.2699L28.7693 70.2751L29.3654 68.6701ZM10.3654 50.5251L8.78926 51.1938L8.79353 51.2038L8.79793 51.2138L10.3654 50.5251ZM10.3654 22.9751L8.79793 22.2864L8.79353 22.2964L8.78926 22.3064L10.3654 22.9751ZM17.9654 12.0501L16.7912 10.804L16.7852 10.8097L16.7792 10.8154L17.9654 12.0501ZM29.4604 4.92505L30.0641 6.5272L30.0742 6.52339L30.0843 6.51945L29.4604 4.92505ZM59.3854 5.40006L58.698 6.96813L58.7109 6.97377L58.7239 6.97921L59.3854 5.40006ZM71.1654 14.1401L72.3267 15.3982L73.5129 14.3032L72.4895 13.0547L71.1654 14.1401ZM61.2854 23.2601L59.9989 24.3898L61.157 25.7087L62.4467 24.5182L61.2854 23.2601ZM53.6854 17.4651L52.9479 19.0102L52.9624 19.0171L52.9769 19.0237L53.6854 17.4651ZM24.8054 28.1051L23.2239 27.4493L23.217 27.4659L23.2104 27.4827L24.8054 28.1051ZM24.8054 45.3951L23.2104 46.0175L23.217 46.0343L23.2239 46.0509L24.8054 45.3951ZM53.6854 56.1301L54.3939 57.6887L54.4084 57.6821L54.4229 57.6752L53.6854 56.1301ZM61.2854 50.1451L62.4467 48.887L61.1415 47.6822L59.9855 49.0309L61.2854 50.1451ZM71.1654 59.2651L72.4895 60.3505L73.5129 59.102L72.3267 58.007L71.1654 59.2651ZM59.3854 68.1001L58.7058 66.5286L58.698 66.532L59.3854 68.1001ZM43.7104 69.428C38.7666 69.428 34.1885 68.6352 29.9615 67.0651L28.7693 70.2751C33.4089 71.9984 38.3942 72.8522 43.7104 72.8522V69.428ZM29.9893 67.0757C25.8184 65.4436 22.2119 63.1558 19.1516 60.2155L16.7792 62.6847C20.1789 65.9511 24.1724 68.4766 28.7415 70.2645L29.9893 67.0757ZM19.1516 60.2155C16.0864 57.2704 13.6812 53.8153 11.9329 49.8364L8.79793 51.2138C10.723 55.5949 13.3844 59.4231 16.7792 62.6847L19.1516 60.2155ZM11.9415 49.8564C10.2667 45.9086 9.41751 41.5472 9.41751 36.7501H5.99329C5.99329 41.9597 6.91744 46.7816 8.78926 51.1938L11.9415 49.8564ZM9.41751 36.7501C9.41751 31.953 10.2667 27.5916 11.9415 23.6438L8.78926 22.3064C6.91744 26.7186 5.99329 31.5405 5.99329 36.7501H9.41751ZM11.9329 23.6638C13.6812 19.6849 16.0864 16.2297 19.1516 13.2847L16.7792 10.8154C13.3844 14.0771 10.723 17.9053 8.79793 22.2864L11.9329 23.6638ZM19.1396 13.2962C22.2629 10.353 25.899 8.09666 30.0641 6.5272L28.8567 3.32291C24.2818 5.04679 20.2546 7.54043 16.7912 10.804L19.1396 13.2962ZM30.0843 6.51945C34.2353 4.89513 38.8028 4.07217 43.8054 4.07217V0.647949C38.4213 0.647949 33.4255 1.53499 28.8365 3.33066L30.0843 6.51945ZM43.8054 4.07217C49.3655 4.07217 54.32 5.04901 58.698 6.96813L60.0728 3.83199C55.2041 1.69777 49.7719 0.647949 43.8054 0.647949V4.07217ZM58.7239 6.97921C63.1573 8.83645 66.855 11.5821 69.8413 15.2255L72.4895 13.0547C69.1425 8.9713 64.9868 5.89033 60.0469 3.82091L58.7239 6.97921ZM70.0041 12.882L60.1241 22.002L62.4467 24.5182L72.3267 15.3982L70.0041 12.882ZM62.572 22.1304C60.1525 19.375 57.4283 17.2857 54.3939 15.9064L52.9769 19.0237C55.5158 20.1778 57.8583 21.9519 59.9989 24.3898L62.572 22.1304ZM54.4229 15.9199C51.3907 14.4728 48.0966 13.758 44.5654 13.758V17.1822C47.6209 17.1822 50.4067 17.7974 52.9479 19.0102L54.4229 15.9199ZM44.5654 13.758C41.2732 13.758 38.2093 14.2961 35.393 15.3951L36.6378 18.5851C39.0149 17.6574 41.6509 17.1822 44.5654 17.1822V13.758ZM35.393 15.3951C32.5842 16.4912 30.1334 18.0758 28.0598 20.1495L30.481 22.5707C32.2074 20.8444 34.2533 19.5156 36.6378 18.5851L35.393 15.3951ZM28.0598 20.1495C25.9936 22.2156 24.3825 24.6549 23.2239 27.4493L26.387 28.7609C27.3816 26.362 28.7472 24.3046 30.481 22.5707L28.0598 20.1495ZM23.2104 27.4827C22.1099 30.3028 21.5733 33.3992 21.5733 36.7501H24.9975C24.9975 33.7677 25.4743 31.1007 26.4004 28.7275L23.2104 27.4827ZM21.5733 36.7501C21.5733 40.101 22.1099 43.1974 23.2104 46.0175L26.4004 44.7727C25.4743 42.3995 24.9975 39.7325 24.9975 36.7501H21.5733ZM23.2239 46.0509C24.3825 48.8453 25.9936 51.2846 28.0598 53.3507L30.481 50.9295C28.7472 49.1956 27.3816 47.1382 26.387 44.7393L23.2239 46.0509ZM28.0598 53.3507C30.1334 55.4244 32.5842 57.009 35.393 58.1051L36.6378 54.9151C34.2533 53.9846 32.2074 52.6558 30.481 50.9295L28.0598 53.3507ZM35.393 58.1051C38.2093 59.2041 41.2732 59.7422 44.5654 59.7422V56.318C41.6509 56.318 39.0149 55.8428 36.6378 54.9151L35.393 58.1051ZM44.5654 59.7422C48.0843 59.7422 51.3682 59.0641 54.3939 57.6887L52.9769 54.5714C50.4293 55.7295 47.6332 56.318 44.5654 56.318V59.7422ZM54.4229 57.6752C57.4522 56.2294 60.1708 54.0762 62.5853 51.2593L59.9855 49.0309C57.84 51.534 55.4919 53.3708 52.9479 54.5849L54.4229 57.6752ZM60.1241 51.4032L70.0041 60.5232L72.3267 58.007L62.4467 48.887L60.1241 51.4032ZM69.8413 58.1797C66.8516 61.8272 63.1477 64.6078 58.7058 66.5286L60.065 69.6716C64.9964 67.5391 69.1459 64.4297 72.4895 60.3505L69.8413 58.1797ZM58.698 66.532C54.3223 68.4502 49.3367 69.428 43.7104 69.428V72.8522C49.7374 72.8522 55.2018 71.8034 60.0728 69.6682L58.698 66.532ZM81.5583 70.0001H79.8461V71.7122H81.5583V70.0001ZM81.5583 3.50006V1.78794H79.8461V3.50006H81.5583ZM96.9483 3.50006H98.6604V1.78794H96.9483V3.50006ZM96.9483 57.4601H95.2361V59.1722H96.9483V57.4601ZM130.293 57.4601H132.005V55.748H130.293V57.4601ZM130.293 70.0001V71.7122H132.005V70.0001H130.293ZM83.2704 70.0001V3.50006H79.8461V70.0001H83.2704ZM81.5583 5.21217H96.9483V1.78794H81.5583V5.21217ZM95.2361 3.50006V57.4601H98.6604V3.50006H95.2361ZM96.9483 59.1722H130.293V55.748H96.9483V59.1722ZM128.581 57.4601V70.0001H132.005V57.4601H128.581ZM130.293 68.288H81.5583V71.7122H130.293V68.288ZM137.58 3.50006V1.78794H135.868V3.50006H137.58ZM152.97 3.50006H154.682V1.78794H152.97V3.50006ZM182.61 3.50006V1.78794H180.898V3.50006H182.61ZM197.81 3.50006H199.522V1.78794H197.81V3.50006ZM167.695 69.428C158.585 69.428 151.684 66.8996 146.763 62.0372L144.356 64.473C150.075 70.1239 157.931 72.8522 167.695 72.8522V69.428ZM146.763 62.0372C141.859 57.1916 139.292 50.181 139.292 40.7401H135.868C135.868 50.8059 138.62 58.8052 144.356 64.473L146.763 62.0372ZM139.292 40.7401V3.50006H135.868V40.7401H139.292ZM137.58 5.21217H152.97V1.78794H137.58V5.21217ZM151.258 3.50006V40.1701H154.682V3.50006H151.258ZM151.258 40.1701C151.258 46.6677 152.577 51.7604 155.612 55.0173L158.117 52.6829C155.959 50.3665 154.682 46.3392 154.682 40.1701H151.258ZM155.612 55.0173C158.605 58.2291 162.745 59.7422 167.79 59.7422V56.318C163.46 56.318 160.318 55.0445 158.117 52.6829L155.612 55.0173ZM167.79 59.7422C172.834 59.7422 176.974 58.2291 179.967 55.0173L177.462 52.6829C175.262 55.0445 172.119 56.318 167.79 56.318V59.7422ZM179.967 55.0173C183.002 51.7604 184.322 46.6677 184.322 40.1701H180.898C180.898 46.3392 179.621 50.3665 177.462 52.6829L179.967 55.0173ZM184.322 40.1701V3.50006H180.898V40.1701H184.322ZM182.61 5.21217H197.81V1.78794H182.61V5.21217ZM196.098 3.50006V40.7401H199.522V3.50006H196.098ZM196.098 40.7401C196.098 50.181 193.53 57.1916 188.626 62.0372L191.033 64.473C196.769 58.8052 199.522 50.8059 199.522 40.7401H196.098ZM188.626 62.0372C183.705 66.8996 176.805 69.428 167.695 69.428V72.8522C177.458 72.8522 185.314 70.1239 191.033 64.473L188.626 62.0372ZM213.018 70.0001H211.306V71.7122H213.018V70.0001ZM213.018 3.50006V1.78794H211.306V3.50006H213.018ZM264.318 8.25006L263.284 9.6148L263.294 9.6222L264.318 8.25006ZM268.118 29.9101L269.537 30.868L269.542 30.8599L269.548 30.8517L268.118 29.9101ZM250.828 37.8901L249.274 37.1702L248.147 39.6022H250.828V37.8901ZM252.633 33.9951V32.283H251.539L251.079 33.2752L252.633 33.9951ZM263.748 36.0851L263.07 37.6572L263.083 37.6628L263.096 37.6683L263.748 36.0851ZM271.253 42.0701L269.828 43.0198L269.836 43.0314L269.844 43.0429L271.253 42.0701ZM267.263 65.2501L268.249 66.6499L268.255 66.6453L268.262 66.6407L267.263 65.2501ZM228.313 58.4101H226.601V60.1222H228.313V58.4101ZM255.293 56.5101L256.2 57.962L256.212 57.9545L255.293 56.5101ZM255.293 44.0651L254.323 45.476L254.348 45.4932L254.374 45.5095L255.293 44.0651ZM227.173 41.9751H225.461V43.6872H227.173V41.9751ZM227.173 30.7651V29.053H225.461V30.7651H227.173ZM252.158 28.8651L253.086 30.3038L253.097 30.2965L252.158 28.8651ZM252.158 17.0851L251.198 18.5026L251.224 18.5203L251.25 18.537L252.158 17.0851ZM228.313 15.0901V13.378H226.601V15.0901H228.313ZM214.73 70.0001V3.50006H211.306V70.0001H214.73ZM213.018 5.21217H245.508V1.78794H213.018V5.21217ZM245.508 5.21217C253.7 5.21217 259.532 6.77237 263.284 9.6148L265.352 6.88535C260.744 3.39444 254.035 1.78794 245.508 1.78794V5.21217ZM263.294 9.6222C267.114 12.4732 268.971 16.1494 268.971 20.7901H272.395C272.395 15.0441 270.008 10.3603 265.342 6.87791L263.294 9.6222ZM268.971 20.7901C268.971 23.9804 268.192 26.6842 266.688 28.9685L269.548 30.8517C271.463 27.9426 272.395 24.5665 272.395 20.7901H268.971ZM266.699 28.9522C265.175 31.2096 263.08 32.9771 260.362 34.2495L261.814 37.3507C265.049 35.8364 267.641 33.6773 269.537 30.868L266.699 28.9522ZM260.362 34.2495C257.649 35.5194 254.484 36.178 250.828 36.178V39.6022C254.898 39.6022 258.573 38.8675 261.814 37.3507L260.362 34.2495ZM252.381 38.61L254.186 34.715L251.079 33.2752L249.274 37.1702L252.381 38.61ZM252.633 35.7072C256.623 35.7072 260.09 36.3719 263.07 37.6572L264.426 34.513C260.945 33.0116 257.003 32.283 252.633 32.283V35.7072ZM263.096 37.6683C266.042 38.8812 268.261 40.6693 269.828 43.0198L272.677 41.1204C270.698 38.1509 267.914 35.949 264.4 34.5019L263.096 37.6683ZM269.844 43.0429C271.447 45.3648 272.296 48.2701 272.296 51.8551H275.72C275.72 47.7134 274.732 44.0954 272.662 41.0973L269.844 43.0429ZM272.296 51.8551C272.296 57.0231 270.297 60.9623 266.264 63.8595L268.262 66.6407C273.222 63.0779 275.72 58.0871 275.72 51.8551H272.296ZM266.277 63.8503C262.194 66.7259 255.987 68.288 247.408 68.288V71.7122C256.309 71.7122 263.339 70.1077 268.249 66.6499L266.277 63.8503ZM247.408 68.288H213.018V71.7122H247.408V68.288ZM228.313 60.1222H246.268V56.698H228.313V60.1222ZM246.268 60.1222C250.387 60.1222 253.775 59.4777 256.2 57.962L254.385 55.0582C252.757 56.0758 250.129 56.698 246.268 56.698V60.1222ZM256.212 57.9545C258.877 56.2585 260.14 53.572 260.14 50.2401H256.716C256.716 52.6082 255.888 54.1017 254.374 55.0657L256.212 57.9545ZM260.14 50.2401C260.14 46.9545 258.865 44.3087 256.212 42.6207L254.374 45.5095C255.901 46.4815 256.716 47.9524 256.716 50.2401H260.14ZM256.263 42.6542C253.823 40.9769 250.408 40.263 246.268 40.263V43.6872C250.108 43.6872 252.709 44.3666 254.323 45.476L256.263 42.6542ZM246.268 40.263H227.173V43.6872H246.268V40.263ZM228.885 41.9751V30.7651H225.461V41.9751H228.885ZM227.173 32.4772H243.608V29.053H227.173V32.4772ZM243.608 32.4772C247.494 32.4772 250.726 31.8263 253.086 30.3038L251.23 27.4264C249.663 28.4372 247.195 29.053 243.608 29.053V32.4772ZM253.097 30.2965C255.659 28.6152 256.91 26.0505 256.91 22.8801H253.486C253.486 25.0297 252.71 26.455 251.218 27.4337L253.097 30.2965ZM256.91 22.8801C256.91 19.7543 255.642 17.2439 253.065 15.6332L251.25 18.537C252.727 19.4596 253.486 20.8126 253.486 22.8801H256.91ZM253.118 15.6676C250.751 14.0642 247.505 13.378 243.608 13.378V16.8022C247.184 16.8022 249.638 17.446 251.198 18.5026L253.118 15.6676ZM243.608 13.378H228.313V16.8022H243.608V13.378ZM226.601 15.0901V58.4101H230.025V15.0901H226.601ZM292.214 69.0501L291.724 70.6906L291.734 70.6935L291.744 70.6963L292.214 69.0501ZM280.434 63.4451L278.874 62.7414L278.316 63.9789L279.393 64.8043L280.434 63.4451ZM285.659 51.8551L286.652 50.4598L284.954 49.2529L284.099 51.1514L285.659 51.8551ZM295.729 56.8901L295.172 58.509L295.188 58.5144L295.204 58.5195L295.729 56.8901ZM314.919 57.9351L315.427 59.5703L315.444 59.565L315.461 59.5594L314.919 57.9351ZM318.339 47.4851L317.293 48.8399L317.312 48.8551L317.332 48.8697L318.339 47.4851ZM312.829 44.9201L312.329 46.5575L312.35 46.5639L312.371 46.5698L312.829 44.9201ZM305.229 43.0201L304.842 44.6877L304.864 44.6929L304.886 44.6975L305.229 43.0201ZM296.964 40.7401L296.434 42.3681L296.445 42.3716L296.964 40.7401ZM283.854 31.8101L282.393 32.7029L282.402 32.7175L282.412 32.7319L283.854 31.8101ZM284.804 12.7151L283.375 11.7719L283.371 11.7789L284.804 12.7151ZM294.114 5.21006L294.812 6.77365L294.823 6.76871L294.114 5.21006ZM322.139 3.88006L321.724 5.54105L321.736 5.54411L321.749 5.547L322.139 3.88006ZM332.874 8.25006L334.46 8.8948L335 7.56858L333.79 6.80319L332.874 8.25006ZM328.124 19.9351L327.275 21.4216L328.974 22.3923L329.71 20.5798L328.124 19.9351ZM318.814 16.0401L318.344 17.6863L318.36 17.6908L318.375 17.695L318.814 16.0401ZM298.294 18.5101L299.654 19.5501L299.669 19.5315L299.682 19.5125L298.294 18.5101ZM299.149 26.4901L298.103 27.8449L298.122 27.8601L298.142 27.8747L299.149 26.4901ZM312.164 30.8601L311.777 32.5277L311.785 32.5296L312.164 30.8601ZM320.429 33.0451L319.934 34.684L319.944 34.687L320.429 33.0451ZM333.539 41.8801L332.079 42.7729L332.087 42.7875L332.097 42.8019L333.539 41.8801ZM323.184 68.2901L322.476 66.7314L322.467 66.7356L323.184 68.2901ZM307.509 69.428C302.341 69.428 297.401 68.7514 292.685 67.4039L291.744 70.6963C296.781 72.1355 302.038 72.8522 307.509 72.8522V69.428ZM292.704 67.4096C287.96 65.9926 284.24 64.2031 281.476 62.0859L279.393 64.8043C282.582 67.2471 286.715 69.1943 291.724 70.6906L292.704 67.4096ZM281.995 64.1488L287.22 52.5588L284.099 51.1514L278.874 62.7414L281.995 64.1488ZM284.667 53.2504C287.671 55.3864 291.179 57.1344 295.172 58.509L296.287 55.2712C292.553 53.9858 289.348 52.3771 286.652 50.4598L284.667 53.2504ZM295.204 58.5195C299.294 59.8391 303.43 60.5022 307.604 60.5022V57.078C303.799 57.078 300.018 56.4744 296.255 55.2607L295.204 58.5195ZM307.604 60.5022C310.729 60.5022 313.359 60.212 315.427 59.5703L314.412 56.2999C312.806 56.7982 310.56 57.078 307.604 57.078V60.5022ZM315.461 59.5594C317.54 58.8663 319.259 57.8694 320.421 56.4585L317.778 54.2817C317.166 55.0242 316.099 55.7372 314.378 56.3108L315.461 59.5594ZM320.421 56.4585C321.56 55.0756 322.142 53.456 322.142 51.6651H318.717C318.717 52.6609 318.412 53.5112 317.778 54.2817L320.421 56.4585ZM322.142 51.6651C322.142 49.363 321.198 47.447 319.346 46.1005L317.332 48.8697C318.268 49.5499 318.717 50.4206 318.717 51.6651H322.142ZM319.386 46.1303C317.769 44.8803 315.712 43.9439 313.288 43.2704L312.371 46.5698C314.507 47.163 316.124 47.9365 317.293 48.8399L319.386 46.1303ZM313.33 43.2827C310.989 42.5676 308.402 41.9216 305.573 41.3427L304.886 44.6975C307.63 45.2586 310.11 45.8793 312.329 46.5575L313.33 43.2827ZM305.617 41.3525C302.94 40.7299 300.229 39.9821 297.484 39.1086L296.445 42.3716C299.273 43.2714 302.072 44.0436 304.842 44.6877L305.617 41.3525ZM297.494 39.1121C294.889 38.2638 292.51 37.1781 290.352 35.8592L288.567 38.781C290.968 40.2488 293.593 41.443 296.434 42.3681L297.494 39.1121ZM290.352 35.8592C288.297 34.6032 286.616 32.952 285.297 30.8883L282.412 32.7319C284.006 35.2282 286.062 37.2503 288.567 38.781L290.352 35.8592ZM285.315 30.9173C284.132 28.9805 283.477 26.4021 283.477 23.0701H280.052C280.052 26.8314 280.79 30.0797 282.393 32.7029L285.315 30.9173ZM283.477 23.0701C283.477 19.5937 284.398 16.4689 286.238 13.6513L283.371 11.7789C281.158 15.168 280.052 18.9465 280.052 23.0701H283.477ZM286.233 13.6582C288.112 10.8114 290.936 8.50274 294.812 6.77365L293.417 3.6465C289.059 5.59075 285.677 8.28538 283.375 11.7719L286.233 13.6582ZM294.823 6.76871C298.715 4.99968 303.68 4.07217 309.789 4.07217V0.647949C303.359 0.647949 297.874 1.62043 293.406 3.65141L294.823 6.76871ZM309.789 4.07217C313.829 4.07217 317.807 4.56169 321.724 5.54105L322.555 2.21906C318.365 1.17176 314.109 0.647949 309.789 0.647949V4.07217ZM321.749 5.547C325.641 6.45917 329.037 7.84836 331.959 9.69693L333.79 6.80319C330.505 4.72509 326.745 3.20094 322.53 2.21311L321.749 5.547ZM331.288 7.60531L326.538 19.2904L329.71 20.5798L334.46 8.8948L331.288 7.60531ZM328.974 18.4486C325.756 16.6098 322.515 15.2507 319.253 14.3852L318.375 17.695C321.32 18.4762 324.286 19.7138 327.275 21.4216L328.974 18.4486ZM319.285 14.3939C316.041 13.4671 312.843 12.998 309.694 12.998V16.4222C312.499 16.4222 315.381 16.8397 318.344 17.6863L319.285 14.3939ZM309.694 12.998C306.603 12.998 303.945 13.3573 301.79 14.1476L302.969 17.3626C304.613 16.7595 306.833 16.4222 309.694 16.4222V12.998ZM301.79 14.1476C299.704 14.9126 298 15.994 296.906 17.5077L299.682 19.5125C300.236 18.7462 301.255 17.991 302.969 17.3626L301.79 14.1476ZM296.934 17.4701C295.865 18.8683 295.347 20.5074 295.347 22.3101H298.772C298.772 21.1994 299.077 20.3052 299.654 19.5501L296.934 17.4701ZM295.347 22.3101C295.347 24.5685 296.304 26.4553 298.103 27.8449L300.196 25.1353C299.208 24.3716 298.772 23.4717 298.772 22.3101H295.347ZM298.142 27.8747C299.751 29.0443 301.792 29.9407 304.201 30.6098L305.118 27.3104C302.966 26.7129 301.335 25.9626 300.156 25.1054L298.142 27.8747ZM304.201 30.6098C306.508 31.2506 309.034 31.8898 311.777 32.5277L312.552 29.1925C309.848 28.5637 307.371 27.9363 305.118 27.3104L304.201 30.6098ZM311.785 32.5296C314.533 33.1541 317.249 33.8723 319.934 34.684L320.925 31.4062C318.163 30.5713 315.369 29.8327 312.544 29.1906L311.785 32.5296ZM319.944 34.687C322.6 35.4717 324.995 36.522 327.137 37.831L328.922 34.9092C326.504 33.4315 323.832 32.2651 320.915 31.4032L319.944 34.687ZM327.137 37.831C329.185 39.0827 330.827 40.7246 332.079 42.7729L335 40.9873C333.465 38.4756 331.434 36.4441 328.922 34.9092L327.137 37.831ZM332.097 42.8019C333.333 44.7377 334.012 47.2757 334.012 50.5251H337.437C337.437 46.8078 336.659 43.5825 334.982 40.9583L332.097 42.8019ZM334.012 50.5251C334.012 53.9205 333.069 57.0076 331.169 59.8287L334.01 61.7415C336.29 58.3559 337.437 54.603 337.437 50.5251H334.012ZM331.169 59.8287C329.293 62.6155 326.433 64.9327 322.476 66.7314L323.893 69.8488C328.296 67.8475 331.706 65.1614 334.01 61.7415L331.169 59.8287ZM322.467 66.7356C318.646 68.4991 313.687 69.428 307.509 69.428V72.8522C313.999 72.8522 319.49 71.8811 323.902 69.8446L322.467 66.7356ZM344.486 84.6301L342.835 84.1761L342.239 86.3422H344.486V84.6301ZM350.756 61.8301L352.419 61.4236L350.853 55.0186L349.105 61.3761L350.756 61.8301ZM352.846 70.3801V72.0922H355.027L354.509 69.9736L352.846 70.3801ZM346.101 68.0051L344.938 69.2614L344.949 69.2719L344.961 69.2822L346.101 68.0051ZM359.306 54.8951L358.095 56.1057L358.107 56.1172L358.118 56.1284L359.306 54.8951ZM361.681 63.9201L363.37 64.2016L363.372 64.191L363.373 64.1804L361.681 63.9201ZM360.921 66.7701L359.297 66.2287L359.287 66.2577L359.278 66.287L360.921 66.7701ZM359.306 70.9501L357.741 70.2547L357.727 70.2871L357.714 70.32L359.306 70.9501ZM353.891 84.6301V86.3422H355.055L355.483 85.2602L353.891 84.6301ZM346.137 85.0841L352.407 62.2841L349.105 61.3761L342.835 84.1761L346.137 85.0841ZM349.093 62.2366L351.183 70.7866L354.509 69.9736L352.419 61.4236L349.093 62.2366ZM352.846 68.668C350.478 68.668 348.655 67.9905 347.241 66.728L344.961 69.2822C347.093 71.1864 349.767 72.0922 352.846 72.0922V68.668ZM347.264 66.7488C345.972 65.5525 345.248 63.8611 345.248 61.4501H341.824C341.824 64.6124 342.81 67.2911 344.938 69.2614L347.264 66.7488ZM345.248 61.4501C345.248 59.0604 345.991 57.3272 347.361 56.0547L345.031 53.5455C342.855 55.5663 341.824 58.2665 341.824 61.4501H345.248ZM347.361 56.0547C348.793 54.7248 350.552 54.0422 352.751 54.0422V50.618C349.757 50.618 347.145 51.5821 345.031 53.5455L347.361 56.0547ZM352.751 54.0422C355.007 54.0422 356.74 54.7504 358.095 56.1057L360.517 53.6845C358.452 51.6198 355.815 50.618 352.751 50.618V54.0422ZM358.118 56.1284C359.443 57.4039 360.159 59.1173 360.159 61.4501H363.583C363.583 58.3362 362.589 55.6797 360.494 53.6618L358.118 56.1284ZM360.159 61.4501C360.159 62.1853 360.102 62.9216 359.989 63.6598L363.373 64.1804C363.513 63.272 363.583 62.3616 363.583 61.4501H360.159ZM359.992 63.6386C359.886 64.2759 359.662 65.1322 359.297 66.2287L362.545 67.3115C362.94 66.128 363.223 65.0843 363.37 64.2016L359.992 63.6386ZM359.278 66.287C358.992 67.2595 358.488 68.5748 357.741 70.2547L360.87 71.6455C361.644 69.9054 362.216 68.4341 362.563 67.2532L359.278 66.287ZM357.714 70.32L352.299 84L355.483 85.2602L360.898 71.5802L357.714 70.32ZM353.891 82.918H344.486V86.3422H353.891V82.918ZM419.814 70.0001L418.241 70.6783L418.688 71.7122H419.814V70.0001ZM391.124 3.50006V1.78794H388.52L389.551 4.17828L391.124 3.50006ZM407.749 3.50006L409.324 2.8293L408.88 1.78794H407.749V3.50006ZM432.829 62.4001V64.1122H435.418L434.404 61.7293L432.829 62.4001ZM423.044 62.4001L421.472 61.7208L420.438 64.1122H423.044V62.4001ZM448.504 3.50006V1.78794H447.378L446.932 2.82073L448.504 3.50006ZM463.799 3.50006L465.37 4.18017L466.405 1.78794H463.799V3.50006ZM435.014 70.0001V71.7122H436.138L436.585 70.6802L435.014 70.0001ZM421.386 69.3219L392.696 2.82183L389.551 4.17828L418.241 70.6783L421.386 69.3219ZM391.124 5.21217H407.749V1.78794H391.124V5.21217ZM406.173 4.17081L431.253 63.0709L434.404 61.7293L409.324 2.8293L406.173 4.17081ZM432.829 60.688H423.044V64.1122H432.829V60.688ZM424.615 63.0794L450.075 4.17938L446.932 2.82073L421.472 61.7208L424.615 63.0794ZM448.504 5.21217H463.799V1.78794H448.504V5.21217ZM462.227 2.81994L433.442 69.32L436.585 70.6802L465.37 4.18017L462.227 2.81994ZM435.014 68.288H419.814V71.7122H435.014V68.288ZM483.506 30.2901V28.578H481.794V30.2901H483.506ZM515.521 30.2901H517.233V28.578H515.521V30.2901ZM515.521 42.2601V43.9722H517.233V42.2601H515.521ZM483.506 42.2601H481.794V43.9722H483.506V42.2601ZM484.646 57.6501H482.934V59.3622H484.646V57.6501ZM520.841 57.6501H522.553V55.938H520.841V57.6501ZM520.841 70.0001V71.7122H522.553V70.0001H520.841ZM469.351 70.0001H467.639V71.7122H469.351V70.0001ZM469.351 3.50006V1.78794H467.639V3.50006H469.351ZM519.606 3.50006H521.318V1.78794H519.606V3.50006ZM519.606 15.8501V17.5622H521.318V15.8501H519.606ZM484.646 15.8501V14.138H482.934V15.8501H484.646ZM483.506 32.0022H515.521V28.578H483.506V32.0022ZM513.809 30.2901V42.2601H517.233V30.2901H513.809ZM515.521 40.548H483.506V43.9722H515.521V40.548ZM485.218 42.2601V30.2901H481.794V42.2601H485.218ZM484.646 59.3622H520.841V55.938H484.646V59.3622ZM519.129 57.6501V70.0001H522.553V57.6501H519.129ZM520.841 68.288H469.351V71.7122H520.841V68.288ZM471.063 70.0001V3.50006H467.639V70.0001H471.063ZM469.351 5.21217H519.606V1.78794H469.351V5.21217ZM517.894 3.50006V15.8501H521.318V3.50006H517.894ZM519.606 14.138H484.646V17.5622H519.606V14.138ZM482.934 15.8501V57.6501H486.358V15.8501H482.934ZM533.086 70.0001H531.374V71.7122H533.086V70.0001ZM533.086 3.50006V1.78794H531.374V3.50006H533.086ZM545.816 3.50006L547.14 2.41488L546.627 1.78794H545.816V3.50006ZM585.051 51.3801V53.0922H588.668L586.375 50.2949L585.051 51.3801ZM578.876 51.3801H577.164V53.0922H578.876V51.3801ZM578.876 3.50006V1.78794H577.164V3.50006H578.876ZM594.076 3.50006H595.788V1.78794H594.076V3.50006ZM594.076 70.0001V71.7122H595.788V70.0001H594.076ZM581.441 70.0001L580.118 71.0868L580.632 71.7122H581.441V70.0001ZM542.111 22.1201V20.408H538.489L540.788 23.2068L542.111 22.1201ZM548.286 22.1201H549.998V20.408H548.286V22.1201ZM548.286 70.0001V71.7122H549.998V70.0001H548.286ZM534.798 70.0001V3.50006H531.374V70.0001H534.798ZM533.086 5.21217H545.816V1.78794H533.086V5.21217ZM544.492 4.58523L583.727 52.4653L586.375 50.2949L547.14 2.41488L544.492 4.58523ZM585.051 49.668H578.876V53.0922H585.051V49.668ZM580.588 51.3801V3.50006H577.164V51.3801H580.588ZM578.876 5.21217H594.076V1.78794H578.876V5.21217ZM592.364 3.50006V70.0001H595.788V3.50006H592.364ZM594.076 68.288H581.441V71.7122H594.076V68.288ZM582.764 68.9134L543.434 21.0334L540.788 23.2068L580.118 71.0868L582.764 68.9134ZM542.111 23.8322H548.286V20.408H542.111V23.8322ZM546.574 22.1201V70.0001H549.998V22.1201H546.574ZM548.286 68.288H533.086V71.7122H548.286V68.288ZM609.24 3.50006V1.78794H607.528V3.50006H609.24ZM624.63 3.50006H626.342V1.78794H624.63V3.50006ZM654.27 3.50006V1.78794H652.558V3.50006H654.27ZM669.47 3.50006H671.182V1.78794H669.47V3.50006ZM639.355 69.428C630.245 69.428 623.344 66.8996 618.423 62.0372L616.016 64.473C621.735 70.1239 629.592 72.8522 639.355 72.8522V69.428ZM618.423 62.0372C613.519 57.1916 610.952 50.181 610.952 40.7401H607.528C607.528 50.8059 610.28 58.8052 616.016 64.473L618.423 62.0372ZM610.952 40.7401V3.50006H607.528V40.7401H610.952ZM609.24 5.21217H624.63V1.78794H609.24V5.21217ZM622.918 3.50006V40.1701H626.342V3.50006H622.918ZM622.918 40.1701C622.918 46.6677 624.237 51.7604 627.272 55.0173L629.777 52.6829C627.619 50.3665 626.342 46.3392 626.342 40.1701H622.918ZM627.272 55.0173C630.265 58.2291 634.406 59.7422 639.45 59.7422V56.318C635.121 56.318 631.978 55.0445 629.777 52.6829L627.272 55.0173ZM639.45 59.7422C644.494 59.7422 648.635 58.2291 651.627 55.0173L649.122 52.6829C646.922 55.0445 643.779 56.318 639.45 56.318V59.7422ZM651.627 55.0173C654.662 51.7604 655.982 46.6677 655.982 40.1701H652.558C652.558 46.3392 651.281 50.3665 649.122 52.6829L651.627 55.0173ZM655.982 40.1701V3.50006H652.558V40.1701H655.982ZM654.27 5.21217H669.47V1.78794H654.27V5.21217ZM667.758 3.50006V40.7401H671.182V3.50006H667.758ZM667.758 40.7401C667.758 50.181 665.19 57.1916 660.286 62.0372L662.693 64.473C668.429 58.8052 671.182 50.8059 671.182 40.7401H667.758ZM660.286 62.0372C655.365 66.8996 648.465 69.428 639.355 69.428V72.8522C649.118 72.8522 656.974 70.1239 662.693 64.473L660.286 62.0372ZM698.833 30.2901V28.578H697.121V30.2901H698.833ZM730.848 30.2901H732.56V28.578H730.848V30.2901ZM730.848 42.2601V43.9722H732.56V42.2601H730.848ZM698.833 42.2601H697.121V43.9722H698.833V42.2601ZM699.973 57.6501H698.261V59.3622H699.973V57.6501ZM736.168 57.6501H737.88V55.938H736.168V57.6501ZM736.168 70.0001V71.7122H737.88V70.0001H736.168ZM684.678 70.0001H682.966V71.7122H684.678V70.0001ZM684.678 3.50006V1.78794H682.966V3.50006H684.678ZM734.933 3.50006H736.645V1.78794H734.933V3.50006ZM734.933 15.8501V17.5622H736.645V15.8501H734.933ZM699.973 15.8501V14.138H698.261V15.8501H699.973ZM698.833 32.0022H730.848V28.578H698.833V32.0022ZM729.136 30.2901V42.2601H732.56V30.2901H729.136ZM730.848 40.548H698.833V43.9722H730.848V40.548ZM700.545 42.2601V30.2901H697.121V42.2601H700.545ZM699.973 59.3622H736.168V55.938H699.973V59.3622ZM734.456 57.6501V70.0001H737.88V57.6501H734.456ZM736.168 68.288H684.678V71.7122H736.168V68.288ZM686.39 70.0001V3.50006H682.966V70.0001H686.39ZM684.678 5.21217H734.933V1.78794H684.678V5.21217ZM733.221 3.50006V15.8501H736.645V3.50006H733.221ZM734.933 14.138H699.973V17.5622H734.933V14.138ZM698.261 15.8501V57.6501H701.685V15.8501H698.261ZM754.968 69.0501L754.478 70.6906L754.488 70.6935L754.498 70.6963L754.968 69.0501ZM743.188 63.4451L741.627 62.7414L741.07 63.9789L742.147 64.8043L743.188 63.4451ZM748.413 51.8551L749.406 50.4598L747.708 49.2529L746.852 51.1514L748.413 51.8551ZM758.483 56.8901L757.926 58.509L757.942 58.5144L757.958 58.5195L758.483 56.8901ZM777.673 57.9351L778.181 59.5703L778.198 59.565L778.215 59.5594L777.673 57.9351ZM781.093 47.4851L780.046 48.8399L780.066 48.8551L780.086 48.8697L781.093 47.4851ZM775.583 44.9201L775.083 46.5575L775.104 46.5639L775.125 46.5698L775.583 44.9201ZM767.983 43.0201L767.596 44.6877L767.618 44.6929L767.64 44.6975L767.983 43.0201ZM759.718 40.7401L759.188 42.3681L759.199 42.3716L759.718 40.7401ZM746.608 31.8101L745.147 32.7029L745.156 32.7175L745.166 32.7319L746.608 31.8101ZM747.558 12.7151L746.129 11.7719L746.125 11.7789L747.558 12.7151ZM756.868 5.21006L757.566 6.77365L757.577 6.76871L756.868 5.21006ZM784.893 3.88006L784.478 5.54105L784.49 5.54411L784.503 5.547L784.893 3.88006ZM795.628 8.25006L797.214 8.8948L797.754 7.56858L796.544 6.80319L795.628 8.25006ZM790.878 19.9351L790.029 21.4216L791.728 22.3923L792.464 20.5798L790.878 19.9351ZM781.568 16.0401L781.098 17.6863L781.114 17.6908L781.129 17.695L781.568 16.0401ZM761.048 18.5101L762.408 19.5501L762.423 19.5315L762.436 19.5125L761.048 18.5101ZM761.903 26.4901L760.856 27.8449L760.876 27.8601L760.896 27.8747L761.903 26.4901ZM774.918 30.8601L774.531 32.5277L774.539 32.5296L774.918 30.8601ZM783.183 33.0451L782.688 34.684L782.698 34.687L783.183 33.0451ZM796.293 41.8801L794.832 42.7729L794.841 42.7875L794.851 42.8019L796.293 41.8801ZM785.938 68.2901L785.23 66.7314L785.221 66.7356L785.938 68.2901ZM770.263 69.428C765.095 69.428 760.155 68.7514 755.439 67.4039L754.498 70.6963C759.535 72.1355 764.792 72.8522 770.263 72.8522V69.428ZM755.458 67.4096C750.714 65.9926 746.994 64.2031 744.229 62.0859L742.147 64.8043C745.336 67.2471 749.469 69.1943 754.478 70.6906L755.458 67.4096ZM744.749 64.1488L749.974 52.5588L746.852 51.1514L741.627 62.7414L744.749 64.1488ZM747.421 53.2504C750.425 55.3864 753.933 57.1344 757.926 58.509L759.041 55.2712C755.307 53.9858 752.102 52.3771 749.406 50.4598L747.421 53.2504ZM757.958 58.5195C762.048 59.8391 766.184 60.5022 770.358 60.5022V57.078C766.553 57.078 762.772 56.4744 759.009 55.2607L757.958 58.5195ZM770.358 60.5022C773.483 60.5022 776.113 60.212 778.181 59.5703L777.166 56.2999C775.56 56.7982 773.314 57.078 770.358 57.078V60.5022ZM778.215 59.5594C780.294 58.8663 782.013 57.8694 783.175 56.4585L780.532 54.2817C779.92 55.0242 778.853 55.7372 777.132 56.3108L778.215 59.5594ZM783.175 56.4585C784.314 55.0756 784.895 53.456 784.895 51.6651H781.471C781.471 52.6609 781.166 53.5112 780.532 54.2817L783.175 56.4585ZM784.895 51.6651C784.895 49.363 783.952 47.447 782.1 46.1005L780.086 48.8697C781.022 49.5499 781.471 50.4206 781.471 51.6651H784.895ZM782.14 46.1303C780.523 44.8803 778.466 43.9439 776.042 43.2704L775.125 46.5698C777.261 47.163 778.877 47.9365 780.046 48.8399L782.14 46.1303ZM776.084 43.2827C773.743 42.5676 771.156 41.9216 768.326 41.3427L767.64 44.6975C770.384 45.2586 772.863 45.8793 775.083 46.5575L776.084 43.2827ZM768.371 41.3525C765.694 40.7299 762.983 39.9821 760.237 39.1086L759.199 42.3716C762.027 43.2714 764.826 44.0436 767.596 44.6877L768.371 41.3525ZM760.248 39.1121C757.643 38.2638 755.264 37.1781 753.106 35.8592L751.321 38.781C753.722 40.2488 756.347 41.443 759.188 42.3681L760.248 39.1121ZM753.106 35.8592C751.051 34.6032 749.37 32.952 748.051 30.8883L745.166 32.7319C746.76 35.2282 748.816 37.2503 751.321 38.781L753.106 35.8592ZM748.069 30.9173C746.886 28.9805 746.23 26.4021 746.23 23.0701H742.806C742.806 26.8314 743.544 30.0797 745.147 32.7029L748.069 30.9173ZM746.23 23.0701C746.23 19.5937 747.152 16.4689 748.992 13.6513L746.125 11.7789C743.912 15.168 742.806 18.9465 742.806 23.0701H746.23ZM748.987 13.6582C750.866 10.8114 753.69 8.50274 757.566 6.77365L756.171 3.6465C751.813 5.59075 748.431 8.28538 746.129 11.7719L748.987 13.6582ZM757.577 6.76871C761.469 4.99968 766.434 4.07217 772.543 4.07217V0.647949C766.113 0.647949 760.628 1.62043 756.16 3.65141L757.577 6.76871ZM772.543 4.07217C776.583 4.07217 780.561 4.56169 784.478 5.54105L785.309 2.21906C781.119 1.17176 776.863 0.647949 772.543 0.647949V4.07217ZM784.503 5.547C788.395 6.45917 791.791 7.84836 794.713 9.69693L796.544 6.80319C793.259 4.72509 789.499 3.20094 785.284 2.21311L784.503 5.547ZM794.042 7.60531L789.292 19.2904L792.464 20.5798L797.214 8.8948L794.042 7.60531ZM791.728 18.4486C788.51 16.6098 785.269 15.2507 782.007 14.3852L781.129 17.695C784.074 18.4762 787.04 19.7138 790.029 21.4216L791.728 18.4486ZM782.039 14.3939C778.795 13.4671 775.597 12.998 772.448 12.998V16.4222C775.253 16.4222 778.135 16.8397 781.098 17.6863L782.039 14.3939ZM772.448 12.998C769.356 12.998 766.699 13.3573 764.544 14.1476L765.723 17.3626C767.367 16.7595 769.587 16.4222 772.448 16.4222V12.998ZM764.544 14.1476C762.458 14.9126 760.754 15.994 759.66 17.5077L762.436 19.5125C762.99 18.7462 764.009 17.991 765.723 17.3626L764.544 14.1476ZM759.688 17.4701C758.619 18.8683 758.101 20.5074 758.101 22.3101H761.525C761.525 21.1994 761.831 20.3052 762.408 19.5501L759.688 17.4701ZM758.101 22.3101C758.101 24.5685 759.058 26.4553 760.856 27.8449L762.95 25.1353C761.962 24.3716 761.525 23.4717 761.525 22.3101H758.101ZM760.896 27.8747C762.504 29.0443 764.546 29.9407 766.955 30.6098L767.872 27.3104C765.72 26.7129 764.089 25.9626 762.91 25.1054L760.896 27.8747ZM766.955 30.6098C769.262 31.2506 771.788 31.8898 774.531 32.5277L775.306 29.1925C772.602 28.5637 770.124 27.9363 767.872 27.3104L766.955 30.6098ZM774.539 32.5296C777.287 33.1541 780.003 33.8723 782.688 34.684L783.679 31.4062C780.917 30.5713 778.123 29.8327 775.298 29.1906L774.539 32.5296ZM782.698 34.687C785.354 35.4717 787.749 36.522 789.891 37.831L791.676 34.9092C789.258 33.4315 786.586 32.2651 783.668 31.4032L782.698 34.687ZM789.891 37.831C791.939 39.0827 793.581 40.7246 794.832 42.7729L797.754 40.9873C796.219 38.4756 794.188 36.4441 791.676 34.9092L789.891 37.831ZM794.851 42.8019C796.087 44.7377 796.766 47.2757 796.766 50.5251H800.19C800.19 46.8078 799.413 43.5825 797.736 40.9583L794.851 42.8019ZM796.766 50.5251C796.766 53.9205 795.823 57.0076 793.923 59.8287L796.763 61.7415C799.043 58.3559 800.19 54.603 800.19 50.5251H796.766ZM793.923 59.8287C792.046 62.6155 789.187 64.9327 785.23 66.7314L786.647 69.8488C791.05 67.8475 794.46 65.1614 796.763 61.7415L793.923 59.8287ZM785.221 66.7356C781.4 68.4991 776.441 69.428 770.263 69.428V72.8522C776.752 72.8522 782.243 71.8811 786.656 69.8446L785.221 66.7356ZM3.1454 187L1.58159 186.303L0.507812 188.712H3.1454V187ZM32.7854 120.5V118.788H31.674L31.2216 119.803L32.7854 120.5ZM47.9854 120.5L49.5484 119.801L49.0953 118.788H47.9854V120.5ZM77.7204 187V188.712H80.3614L79.2834 186.301L77.7204 187ZM61.5704 187L59.9886 187.655L60.4264 188.712H61.5704V187ZM37.2504 128.29V126.578H34.688L35.6686 128.945L37.2504 128.29ZM43.3304 128.29L44.9113 128.947L45.8967 126.578H43.3304V128.29ZM18.9154 187V188.712H20.0577L20.4963 187.657L18.9154 187ZM17.9654 172.75L16.3492 172.185L15.5531 174.462H17.9654V172.75ZM22.0504 161.065V159.353H20.8352L20.4342 160.5L22.0504 161.065ZM56.2504 161.065L57.8625 160.488L57.4563 159.353H56.2504V161.065ZM60.4304 172.75V174.462H62.8612L62.0425 172.173L60.4304 172.75ZM4.70921 187.697L34.3492 121.197L31.2216 119.803L1.58159 186.303L4.70921 187.697ZM32.7854 122.212H47.9854V118.788H32.7854V122.212ZM46.4224 121.199L76.1574 187.699L79.2834 186.301L49.5484 119.801L46.4224 121.199ZM77.7204 185.288H61.5704V188.712H77.7204V185.288ZM63.1522 186.345L38.8322 127.635L35.6686 128.945L59.9886 187.655L63.1522 186.345ZM37.2504 130.002H43.3304V126.578H37.2504V130.002ZM41.7495 127.633L17.3345 186.343L20.4963 187.657L44.9113 128.947L41.7495 127.633ZM18.9154 185.288H3.1454V188.712H18.9154V185.288ZM19.5816 173.315L23.6666 161.63L20.4342 160.5L16.3492 172.185L19.5816 173.315ZM22.0504 162.777H56.2504V159.353H22.0504V162.777ZM54.6383 161.642L58.8183 173.327L62.0425 172.173L57.8625 160.488L54.6383 161.642ZM60.4304 171.038H17.9654V174.462H60.4304V171.038ZM84.6198 187H82.9077V188.712H84.6198V187ZM84.6198 120.5V118.788H82.9077V120.5H84.6198ZM97.3498 120.5L98.6741 119.415L98.1603 118.788H97.3498V120.5ZM136.584 168.38V170.092H140.201L137.909 167.295L136.584 168.38ZM130.409 168.38H128.697V170.092H130.409V168.38ZM130.409 120.5V118.788H128.697V120.5H130.409ZM145.609 120.5H147.321V118.788H145.609V120.5ZM145.609 187V188.712H147.321V187H145.609ZM132.974 187L131.651 188.087L132.165 188.712H132.974V187ZM93.6448 139.12V137.408H90.0227L92.3218 140.207L93.6448 139.12ZM99.8198 139.12H101.532V137.408H99.8198V139.12ZM99.8198 187V188.712H101.532V187H99.8198ZM86.3319 187V120.5H82.9077V187H86.3319ZM84.6198 122.212H97.3498V118.788H84.6198V122.212ZM96.0255 121.585L135.26 169.465L137.909 167.295L98.6741 119.415L96.0255 121.585ZM136.584 166.668H130.409V170.092H136.584V166.668ZM132.121 168.38V120.5H128.697V168.38H132.121ZM130.409 122.212H145.609V118.788H130.409V122.212ZM143.897 120.5V187H147.321V120.5H143.897ZM145.609 185.288H132.974V188.712H145.609V185.288ZM134.297 185.913L94.9678 138.033L92.3218 140.207L131.651 188.087L134.297 185.913ZM93.6448 140.832H99.8198V137.408H93.6448V140.832ZM98.1077 139.12V187H101.532V139.12H98.1077ZM99.8198 185.288H84.6198V188.712H99.8198V185.288ZM161.343 187H159.631V188.712H161.343V187ZM161.343 120.5V118.788H159.631V120.5H161.343ZM210.648 124.68L209.875 126.208L209.882 126.211L209.889 126.215L210.648 124.68ZM223.568 171.325L225.018 172.236L225.023 172.227L223.568 171.325ZM210.648 182.915L211.407 184.45L211.414 184.446L211.421 184.443L210.648 182.915ZM176.733 174.365H175.021V176.077H176.733V174.365ZM202.288 171.895L203.066 173.42L203.077 173.414L202.288 171.895ZM209.888 164.675L208.415 163.803L208.408 163.814L208.401 163.826L209.888 164.675ZM209.888 142.825L208.401 143.674L208.412 143.693L208.423 143.71L209.888 142.825ZM202.288 135.7L201.487 137.213L201.505 137.222L201.522 137.231L202.288 135.7ZM176.733 133.135V131.423H175.021V133.135H176.733ZM163.055 187V120.5H159.631V187H163.055ZM161.343 122.212H191.553V118.788H161.343V122.212ZM191.553 122.212C198.55 122.212 204.642 123.561 209.875 126.208L211.421 123.152C205.634 120.225 198.996 118.788 191.553 118.788V122.212ZM209.889 126.215C215.132 128.806 219.192 132.428 222.118 137.086L225.018 135.264C221.737 130.042 217.184 126.001 211.407 123.145L209.889 126.215ZM222.118 137.086C225.024 141.711 226.511 147.242 226.511 153.75H229.935C229.935 146.704 228.319 140.519 225.018 135.264L222.118 137.086ZM226.511 153.75C226.511 160.19 225.026 165.727 222.113 170.423L225.023 172.227C228.317 166.917 229.935 160.736 229.935 153.75H226.511ZM222.118 170.414C219.19 175.075 215.125 178.732 209.875 181.387L211.421 184.443C217.191 181.524 221.739 177.455 225.018 172.236L222.118 170.414ZM209.889 181.38C204.653 183.968 198.556 185.288 191.553 185.288V188.712C198.99 188.712 205.623 187.309 211.407 184.45L209.889 181.38ZM191.553 185.288H161.343V188.712H191.553V185.288ZM176.733 176.077H190.793V172.653H176.733V176.077ZM190.793 176.077C195.437 176.077 199.547 175.214 203.066 173.42L201.51 170.37C198.569 171.869 195.015 172.653 190.793 172.653V176.077ZM203.077 173.414C206.651 171.559 209.431 168.925 211.375 165.524L208.401 163.826C206.798 166.632 204.512 168.811 201.499 170.376L203.077 173.414ZM211.361 165.547C213.378 162.14 214.355 158.187 214.355 153.75H210.931C210.931 157.673 210.072 161.003 208.415 163.803L211.361 165.547ZM214.355 153.75C214.355 149.256 213.38 145.295 211.353 141.94L208.423 143.71C210.069 146.435 210.931 149.758 210.931 153.75H214.355ZM211.375 141.976C209.428 138.569 206.64 135.962 203.054 134.169L201.522 137.231C204.523 138.732 206.801 140.874 208.401 143.674L211.375 141.976ZM203.089 134.187C199.565 132.321 195.447 131.423 190.793 131.423V134.847C195.006 134.847 198.551 135.659 201.487 137.213L203.089 134.187ZM190.793 131.423H176.733V134.847H190.793V131.423ZM175.021 133.135V174.365H178.445V133.135H175.021ZM280.984 150.425V148.713H279.272V150.425H280.984ZM312.904 150.425H314.616V148.713H312.904V150.425ZM312.904 162.775V164.487H314.616V162.775H312.904ZM280.984 162.775H279.272V164.487H280.984V162.775ZM282.124 187V188.712H283.836V187H282.124ZM266.734 187H265.022V188.712H266.734V187ZM266.734 120.5V118.788H265.022V120.5H266.734ZM316.989 120.5H318.701V118.788H316.989V120.5ZM316.989 132.85V134.562H318.701V132.85H316.989ZM282.124 132.85V131.138H280.412V132.85H282.124ZM280.984 152.137H312.904V148.713H280.984V152.137ZM311.192 150.425V162.775H314.616V150.425H311.192ZM312.904 161.063H280.984V164.487H312.904V161.063ZM282.696 162.775V150.425H279.272V162.775H282.696ZM282.124 185.288H266.734V188.712H282.124V185.288ZM268.446 187V120.5H265.022V187H268.446ZM266.734 122.212H316.989V118.788H266.734V122.212ZM315.277 120.5V132.85H318.701V120.5H315.277ZM316.989 131.138H282.124V134.562H316.989V131.138ZM280.412 132.85V187H283.836V132.85H280.412ZM341.562 147.29V145.578H339.85V147.29H341.562ZM373.577 147.29H375.29V145.578H373.577V147.29ZM373.577 159.26V160.972H375.29V159.26H373.577ZM341.562 159.26H339.85V160.972H341.562V159.26ZM342.702 174.65H340.99V176.362H342.702V174.65ZM378.897 174.65H380.61V172.938H378.897V174.65ZM378.897 187V188.712H380.61V187H378.897ZM327.407 187H325.695V188.712H327.407V187ZM327.407 120.5V118.788H325.695V120.5H327.407ZM377.662 120.5H379.375V118.788H377.662V120.5ZM377.662 132.85V134.562H379.375V132.85H377.662ZM342.702 132.85V131.138H340.99V132.85H342.702ZM341.562 149.002H373.577V145.578H341.562V149.002ZM371.865 147.29V159.26H375.29V147.29H371.865ZM373.577 157.548H341.562V160.972H373.577V157.548ZM343.275 159.26V147.29H339.85V159.26H343.275ZM342.702 176.362H378.897V172.938H342.702V176.362ZM377.185 174.65V187H380.61V174.65H377.185ZM378.897 185.288H327.407V188.712H378.897V185.288ZM329.12 187V120.5H325.695V187H329.12ZM327.407 122.212H377.662V118.788H327.407V122.212ZM375.95 120.5V132.85H379.375V120.5H375.95ZM377.662 131.138H342.702V134.562H377.662V131.138ZM340.99 132.85V174.65H344.415V132.85H340.99ZM397.698 186.05L397.208 187.69L397.218 187.693L397.227 187.696L397.698 186.05ZM385.918 180.445L384.357 179.741L383.799 180.979L384.877 181.804L385.918 180.445ZM391.143 168.855L392.135 167.46L390.438 166.253L389.582 168.151L391.143 168.855ZM401.213 173.89L400.655 175.509L400.671 175.514L400.687 175.519L401.213 173.89ZM420.403 174.935L420.91 176.57L420.927 176.565L420.944 176.559L420.403 174.935ZM423.823 164.485L422.776 165.84L422.796 165.855L422.816 165.87L423.823 164.485ZM418.313 161.92L417.813 163.557L417.833 163.564L417.855 163.57L418.313 161.92ZM410.713 160.02L410.325 161.688L410.347 161.693L410.37 161.697L410.713 160.02ZM402.448 157.74L401.918 159.368L401.929 159.372L402.448 157.74ZM389.338 148.81L387.877 149.703L387.886 149.717L387.895 149.732L389.338 148.81ZM390.288 129.715L388.859 128.772L388.854 128.779L390.288 129.715ZM399.598 122.21L400.295 123.774L400.306 123.769L399.598 122.21ZM427.623 120.88L427.208 122.541L427.22 122.544L427.232 122.547L427.623 120.88ZM438.358 125.25L439.944 125.895L440.483 124.569L439.273 123.803L438.358 125.25ZM433.608 136.935L432.758 138.422L434.457 139.392L435.194 137.58L433.608 136.935ZM424.298 133.04L423.827 134.686L423.843 134.691L423.859 134.695L424.298 133.04ZM403.778 135.51L405.138 136.55L405.152 136.531L405.166 136.512L403.778 135.51ZM404.633 143.49L403.586 144.845L403.606 144.86L403.626 144.875L404.633 143.49ZM417.648 147.86L417.26 149.528L417.268 149.53L417.648 147.86ZM425.913 150.045L425.417 151.684L425.428 151.687L425.913 150.045ZM439.023 158.88L437.562 159.773L437.571 159.787L437.58 159.802L439.023 158.88ZM428.668 185.29L427.959 183.731L427.95 183.735L428.668 185.29ZM412.993 186.428C407.824 186.428 402.885 185.751 398.168 184.404L397.227 187.696C402.264 189.135 407.522 189.852 412.993 189.852V186.428ZM398.188 184.41C393.444 182.992 389.723 181.203 386.959 179.086L384.877 181.804C388.066 184.247 392.198 186.194 397.208 187.69L398.188 184.41ZM387.479 181.149L392.704 169.559L389.582 168.151L384.357 179.741L387.479 181.149ZM390.151 170.25C393.154 172.386 396.663 174.134 400.655 175.509L401.77 172.271C398.036 170.986 394.831 169.377 392.135 167.46L390.151 170.25ZM400.687 175.519C404.778 176.839 408.913 177.502 413.088 177.502V174.078C409.282 174.078 405.501 173.474 401.738 172.261L400.687 175.519ZM413.088 177.502C416.212 177.502 418.843 177.212 420.91 176.57L419.895 173.3C418.29 173.798 416.043 174.078 413.088 174.078V177.502ZM420.944 176.559C423.023 175.866 424.743 174.869 425.904 173.458L423.261 171.282C422.65 172.024 421.582 172.737 419.861 173.311L420.944 176.559ZM425.904 173.458C427.043 172.076 427.625 170.456 427.625 168.665H424.201C424.201 169.661 423.896 170.511 423.261 171.282L425.904 173.458ZM427.625 168.665C427.625 166.363 426.681 164.447 424.83 163.1L422.816 165.87C423.751 166.55 424.201 167.42 424.201 168.665H427.625ZM424.87 163.13C423.252 161.88 421.195 160.944 418.771 160.27L417.855 163.57C419.99 164.163 421.607 164.936 422.776 165.84L424.87 163.13ZM418.813 160.283C416.473 159.567 413.886 158.921 411.056 158.343L410.37 161.697C413.113 162.259 415.593 162.879 417.813 163.557L418.813 160.283ZM411.101 158.352C408.423 157.73 405.712 156.982 402.967 156.108L401.929 159.372C404.757 160.271 407.555 161.044 410.325 161.688L411.101 158.352ZM402.978 156.112C400.372 155.264 397.994 154.178 395.836 152.859L394.05 155.781C396.452 157.249 399.076 158.443 401.918 159.368L402.978 156.112ZM395.836 152.859C393.78 151.603 392.099 149.952 390.781 147.888L387.895 149.732C389.49 152.228 391.545 154.25 394.05 155.781L395.836 152.859ZM390.799 147.917C389.615 145.98 388.96 143.402 388.96 140.07H385.536C385.536 143.831 386.274 147.08 387.877 149.703L390.799 147.917ZM388.96 140.07C388.96 136.594 389.881 133.469 391.721 130.651L388.854 128.779C386.641 132.168 385.536 135.946 385.536 140.07H388.96ZM391.717 130.658C393.596 127.811 396.42 125.503 400.295 123.774L398.9 120.646C394.542 122.591 391.16 125.285 388.859 128.772L391.717 130.658ZM400.306 123.769C404.198 122 409.163 121.072 415.273 121.072V117.648C408.843 117.648 403.357 118.62 398.889 120.651L400.306 123.769ZM415.273 121.072C419.313 121.072 423.29 121.562 427.208 122.541L428.038 119.219C423.849 118.172 419.593 117.648 415.273 117.648V121.072ZM427.232 122.547C431.124 123.459 434.521 124.848 437.442 126.697L439.273 123.803C435.988 121.725 432.228 120.201 428.014 119.213L427.232 122.547ZM436.772 124.605L432.022 136.29L435.194 137.58L439.944 125.895L436.772 124.605ZM434.457 135.448C431.239 133.61 427.999 132.251 424.737 131.385L423.859 134.695C426.803 135.476 429.77 136.714 432.758 138.422L434.457 135.448ZM424.768 131.394C421.525 130.467 418.326 129.998 415.178 129.998V133.422C417.983 133.422 420.864 133.84 423.827 134.686L424.768 131.394ZM415.178 129.998C412.086 129.998 409.429 130.357 407.273 131.148L408.452 134.362C410.097 133.759 412.316 133.422 415.178 133.422V129.998ZM407.273 131.148C405.187 131.912 403.483 132.994 402.39 134.508L405.166 136.512C405.719 135.746 406.738 134.991 408.452 134.362L407.273 131.148ZM402.418 134.47C401.349 135.868 400.831 137.507 400.831 139.31H404.255C404.255 138.199 404.56 137.305 405.138 136.55L402.418 134.47ZM400.831 139.31C400.831 141.568 401.788 143.455 403.586 144.845L405.68 142.135C404.691 141.372 404.255 140.472 404.255 139.31H400.831ZM403.626 144.875C405.234 146.044 407.276 146.941 409.685 147.61L410.601 144.31C408.45 143.713 406.818 142.962 405.64 142.105L403.626 144.875ZM409.685 147.61C411.992 148.251 414.517 148.89 417.26 149.528L418.036 146.192C415.332 145.564 412.854 144.936 410.601 144.31L409.685 147.61ZM417.268 149.53C420.016 150.154 422.732 150.872 425.417 151.684L426.408 148.406C423.646 147.571 420.853 146.833 418.027 146.19L417.268 149.53ZM425.428 151.687C428.084 152.472 430.478 153.522 432.62 154.831L434.406 151.909C431.988 150.431 429.315 149.265 426.398 148.403L425.428 151.687ZM432.62 154.831C434.668 156.083 436.31 157.725 437.562 159.773L440.484 157.987C438.949 155.475 436.917 153.444 434.406 151.909L432.62 154.831ZM437.58 159.802C438.817 161.738 439.496 164.276 439.496 167.525H442.92C442.92 163.808 442.142 160.582 440.466 157.958L437.58 159.802ZM439.496 167.525C439.496 170.92 438.553 174.008 436.653 176.829L439.493 178.741C441.773 175.356 442.92 171.603 442.92 167.525H439.496ZM436.653 176.829C434.776 179.615 431.916 181.933 427.959 183.731L429.376 186.849C433.779 184.847 437.19 182.161 439.493 178.741L436.653 176.829ZM427.95 183.735C424.129 185.499 419.17 186.428 412.993 186.428V189.852C419.482 189.852 424.973 188.881 429.385 186.845L427.95 183.735ZM464.571 187H462.859V188.712H464.571V187ZM464.571 133.04H466.283V131.328H464.571V133.04ZM443.291 133.04H441.579V134.752H443.291V133.04ZM443.291 120.5V118.788H441.579V120.5H443.291ZM501.241 120.5H502.953V118.788H501.241V120.5ZM501.241 133.04V134.752H502.953V133.04H501.241ZM479.961 133.04V131.328H478.249V133.04H479.961ZM479.961 187V188.712H481.673V187H479.961ZM466.283 187V133.04H462.859V187H466.283ZM464.571 131.328H443.291V134.752H464.571V131.328ZM445.003 133.04V120.5H441.579V133.04H445.003ZM443.291 122.212H501.241V118.788H443.291V122.212ZM499.529 120.5V133.04H502.953V120.5H499.529ZM501.241 131.328H479.961V134.752H501.241V131.328ZM478.249 133.04V187H481.673V133.04H478.249ZM479.961 185.288H464.571V188.712H479.961V185.288ZM509.522 187H507.81V188.712H509.522V187ZM509.522 120.5V118.788H507.81V120.5H509.522ZM524.912 120.5H526.624V118.788H524.912V120.5ZM524.912 187V188.712H526.624V187H524.912ZM511.234 187V120.5H507.81V187H511.234ZM509.522 122.212H524.912V118.788H509.522V122.212ZM523.2 120.5V187H526.624V120.5H523.2ZM524.912 185.288H509.522V188.712H524.912V185.288ZM560.365 187L558.793 187.678L559.239 188.712H560.365V187ZM531.675 120.5V118.788H529.072L530.103 121.178L531.675 120.5ZM548.3 120.5L549.876 119.829L549.432 118.788H548.3V120.5ZM573.38 179.4V181.112H575.97L574.956 178.729L573.38 179.4ZM563.595 179.4L562.024 178.721L560.99 181.112H563.595V179.4ZM589.055 120.5V118.788H587.93L587.484 119.821L589.055 120.5ZM604.35 120.5L605.922 121.18L606.957 118.788H604.35V120.5ZM575.565 187V188.712H576.69L577.137 187.68L575.565 187ZM561.937 186.322L533.247 119.822L530.103 121.178L558.793 187.678L561.937 186.322ZM531.675 122.212H548.3V118.788H531.675V122.212ZM546.725 121.171L571.805 180.071L574.956 178.729L549.876 119.829L546.725 121.171ZM573.38 177.688H563.595V181.112H573.38V177.688ZM565.167 180.079L590.627 121.179L587.484 119.821L562.024 178.721L565.167 180.079ZM589.055 122.212H604.35V118.788H589.055V122.212ZM602.779 119.82L573.994 186.32L577.137 187.68L605.922 121.18L602.779 119.82ZM575.565 185.288H560.365V188.712H575.565V185.288ZM598.936 187L597.372 186.303L596.298 188.712H598.936V187ZM628.576 120.5V118.788H627.465L627.012 119.803L628.576 120.5ZM643.776 120.5L645.339 119.801L644.886 118.788H643.776V120.5ZM673.511 187V188.712H676.152L675.074 186.301L673.511 187ZM657.361 187L655.779 187.655L656.217 188.712H657.361V187ZM633.041 128.29V126.578H630.479L631.459 128.945L633.041 128.29ZM639.121 128.29L640.702 128.947L641.687 126.578H639.121V128.29ZM614.706 187V188.712H615.848L616.287 187.657L614.706 187ZM613.756 172.75L612.14 172.185L611.344 174.462H613.756V172.75ZM617.841 161.065V159.353H616.626L616.225 160.5L617.841 161.065ZM652.041 161.065L653.653 160.488L653.247 159.353H652.041V161.065ZM656.221 172.75V174.462H658.652L657.833 172.173L656.221 172.75ZM600.5 187.697L630.14 121.197L627.012 119.803L597.372 186.303L600.5 187.697ZM628.576 122.212H643.776V118.788H628.576V122.212ZM642.213 121.199L671.948 187.699L675.074 186.301L645.339 119.801L642.213 121.199ZM673.511 185.288H657.361V188.712H673.511V185.288ZM658.943 186.345L634.623 127.635L631.459 128.945L655.779 187.655L658.943 186.345ZM633.041 130.002H639.121V126.578H633.041V130.002ZM637.54 127.633L613.125 186.343L616.287 187.657L640.702 128.947L637.54 127.633ZM614.706 185.288H598.936V188.712H614.706V185.288ZM615.372 173.315L619.457 161.63L616.225 160.5L612.14 172.185L615.372 173.315ZM617.841 162.777H652.041V159.353H617.841V162.777ZM650.429 161.642L654.609 173.327L657.833 172.173L653.653 160.488L650.429 161.642ZM656.221 171.038H613.756V174.462H656.221V171.038ZM680.41 187H678.698V188.712H680.41V187ZM680.41 120.5V118.788H678.698V120.5H680.41ZM695.8 120.5H697.513V118.788H695.8V120.5ZM695.8 174.46H694.088V176.172H695.8V174.46ZM729.145 174.46H730.858V172.748H729.145V174.46ZM729.145 187V188.712H730.858V187H729.145ZM682.123 187V120.5H678.698V187H682.123ZM680.41 122.212H695.8V118.788H680.41V122.212ZM694.088 120.5V174.46H697.513V120.5H694.088ZM695.8 176.172H729.145V172.748H695.8V176.172ZM727.433 174.46V187H730.858V174.46H727.433ZM729.145 185.288H680.41V188.712H729.145V185.288ZM744.021 186.05L743.531 187.69L743.541 187.693L743.551 187.696L744.021 186.05ZM732.241 180.445L730.68 179.741L730.122 180.979L731.2 181.804L732.241 180.445ZM737.466 168.855L738.458 167.46L736.761 166.253L735.905 168.151L737.466 168.855ZM747.536 173.89L746.979 175.509L746.995 175.514L747.01 175.519L747.536 173.89ZM766.726 174.935L767.234 176.57L767.251 176.565L767.267 176.559L766.726 174.935ZM770.146 164.485L769.099 165.84L769.119 165.855L769.139 165.87L770.146 164.485ZM764.636 161.92L764.136 163.557L764.157 163.564L764.178 163.57L764.636 161.92ZM757.036 160.02L756.648 161.688L756.671 161.693L756.693 161.697L757.036 160.02ZM748.771 157.74L748.241 159.368L748.252 159.372L748.771 157.74ZM735.661 148.81L734.2 149.703L734.209 149.717L734.218 149.732L735.661 148.81ZM736.611 129.715L735.182 128.772L735.178 128.779L736.611 129.715ZM745.921 122.21L746.619 123.774L746.63 123.769L745.921 122.21ZM773.946 120.88L773.531 122.541L773.543 122.544L773.555 122.547L773.946 120.88ZM784.681 125.25L786.267 125.895L786.806 124.569L785.596 123.803L784.681 125.25ZM779.931 136.935L779.082 138.422L780.78 139.392L781.517 137.58L779.931 136.935ZM770.621 133.04L770.151 134.686L770.166 134.691L770.182 134.695L770.621 133.04ZM750.101 135.51L751.461 136.55L751.475 136.531L751.489 136.512L750.101 135.51ZM750.956 143.49L749.909 144.845L749.929 144.86L749.949 144.875L750.956 143.49ZM763.971 147.86L763.583 149.528L763.592 149.53L763.971 147.86ZM772.236 150.045L771.741 151.684L771.751 151.687L772.236 150.045ZM785.346 158.88L783.885 159.773L783.894 159.787L783.903 159.802L785.346 158.88ZM774.991 185.29L774.283 183.731L774.274 183.735L774.991 185.29ZM759.316 186.428C754.147 186.428 749.208 185.751 744.491 184.404L743.551 187.696C748.588 189.135 753.845 189.852 759.316 189.852V186.428ZM744.511 184.41C739.767 182.992 736.046 181.203 733.282 179.086L731.2 181.804C734.389 184.247 738.522 186.194 743.531 187.69L744.511 184.41ZM733.802 181.149L739.027 169.559L735.905 168.151L730.68 179.741L733.802 181.149ZM736.474 170.25C739.478 172.386 742.986 174.134 746.979 175.509L748.093 172.271C744.36 170.986 741.155 169.377 738.458 167.46L736.474 170.25ZM747.01 175.519C751.101 176.839 755.237 177.502 759.411 177.502V174.078C755.606 174.078 751.824 173.474 748.062 172.261L747.01 175.519ZM759.411 177.502C762.536 177.502 765.166 177.212 767.234 176.57L766.219 173.3C764.613 173.798 762.367 174.078 759.411 174.078V177.502ZM767.267 176.559C769.347 175.866 771.066 174.869 772.228 173.458L769.584 171.282C768.973 172.024 767.906 172.737 766.185 173.311L767.267 176.559ZM772.228 173.458C773.367 172.076 773.948 170.456 773.948 168.665H770.524C770.524 169.661 770.219 170.511 769.584 171.282L772.228 173.458ZM773.948 168.665C773.948 166.363 773.005 164.447 771.153 163.1L769.139 165.87C770.074 166.55 770.524 167.42 770.524 168.665H773.948ZM771.193 163.13C769.575 161.88 767.519 160.944 765.094 160.27L764.178 163.57C766.314 164.163 767.93 164.936 769.099 165.84L771.193 163.13ZM765.136 160.283C762.796 159.567 760.209 158.921 757.379 158.343L756.693 161.697C759.436 162.259 761.916 162.879 764.136 163.557L765.136 160.283ZM757.424 158.352C754.747 157.73 752.036 156.982 749.29 156.108L748.252 159.372C751.08 160.271 753.879 161.044 756.648 161.688L757.424 158.352ZM749.301 156.112C746.696 155.264 744.317 154.178 742.159 152.859L740.373 155.781C742.775 157.249 745.4 158.443 748.241 159.368L749.301 156.112ZM742.159 152.859C740.104 151.603 738.422 149.952 737.104 147.888L734.218 149.732C735.813 152.228 737.869 154.25 740.373 155.781L742.159 152.859ZM737.122 147.917C735.938 145.98 735.283 143.402 735.283 140.07H731.859C731.859 143.831 732.597 147.08 734.2 149.703L737.122 147.917ZM735.283 140.07C735.283 136.594 736.204 133.469 738.045 130.651L735.178 128.779C732.964 132.168 731.859 135.946 731.859 140.07H735.283ZM738.04 130.658C739.919 127.811 742.743 125.503 746.619 123.774L745.223 120.646C740.866 122.591 737.483 125.285 735.182 128.772L738.04 130.658ZM746.63 123.769C750.521 122 755.486 121.072 761.596 121.072V117.648C755.166 117.648 749.681 118.62 745.213 120.651L746.63 123.769ZM761.596 121.072C765.636 121.072 769.613 121.562 773.531 122.541L774.361 119.219C770.172 118.172 765.916 117.648 761.596 117.648V121.072ZM773.555 122.547C777.447 123.459 780.844 124.848 783.766 126.697L785.596 123.803C782.312 121.725 778.551 120.201 774.337 119.213L773.555 122.547ZM783.095 124.605L778.345 136.29L781.517 137.58L786.267 125.895L783.095 124.605ZM780.781 135.448C777.563 133.61 774.322 132.251 771.06 131.385L770.182 134.695C773.127 135.476 776.093 136.714 779.082 138.422L780.781 135.448ZM771.091 131.394C767.848 130.467 764.65 129.998 761.501 129.998V133.422C764.306 133.422 767.188 133.84 770.151 134.686L771.091 131.394ZM761.501 129.998C758.409 129.998 755.752 130.357 753.597 131.148L754.775 134.362C756.42 133.759 758.64 133.422 761.501 133.422V129.998ZM753.597 131.148C751.51 131.912 749.806 132.994 748.713 134.508L751.489 136.512C752.042 135.746 753.062 134.991 754.775 134.362L753.597 131.148ZM748.741 134.47C747.672 135.868 747.154 137.507 747.154 139.31H750.578C750.578 138.199 750.884 137.305 751.461 136.55L748.741 134.47ZM747.154 139.31C747.154 141.568 748.111 143.455 749.909 144.845L752.003 142.135C751.015 141.372 750.578 140.472 750.578 139.31H747.154ZM749.949 144.875C751.557 146.044 753.599 146.941 756.008 147.61L756.924 144.31C754.773 143.713 753.142 142.962 751.963 142.105L749.949 144.875ZM756.008 147.61C758.315 148.251 760.84 148.89 763.583 149.528L764.359 146.192C761.655 145.564 759.177 144.936 756.924 144.31L756.008 147.61ZM763.592 149.53C766.339 150.154 769.056 150.872 771.741 151.684L772.732 148.406C769.97 147.571 767.176 146.833 764.35 146.19L763.592 149.53ZM771.751 151.687C774.407 152.472 776.801 153.522 778.943 154.831L780.729 151.909C778.311 150.431 775.639 149.265 772.721 148.403L771.751 151.687ZM778.943 154.831C780.992 156.083 782.633 157.725 783.885 159.773L786.807 157.987C785.272 155.475 783.241 153.444 780.729 151.909L778.943 154.831ZM783.903 159.802C785.14 161.738 785.819 164.276 785.819 167.525H789.243C789.243 163.808 788.465 160.582 786.789 157.958L783.903 159.802ZM785.819 167.525C785.819 170.92 784.876 174.008 782.976 176.829L785.816 178.741C788.096 175.356 789.243 171.603 789.243 167.525H785.819ZM782.976 176.829C781.099 179.615 778.24 181.933 774.283 183.731L775.7 186.849C780.102 184.847 783.513 182.161 785.816 178.741L782.976 176.829ZM774.274 183.735C770.453 185.499 765.494 186.428 759.316 186.428V189.852C765.805 189.852 771.296 188.881 775.709 186.845L774.274 183.735Z" fill="white"/>
</g>
</svg>
