<svg width="852" height="186" viewBox="0 0 852 186" fill="none" xmlns="http://www.w3.org/2000/svg">
<mask id="path-1-outside-1_343_4192" maskUnits="userSpaceOnUse" x="-2" y="-2" width="855" height="189" fill="black">
<rect fill="white" x="-2" y="-2" width="855" height="189"/>
<path d="M22.14 68.14C17.6433 68.14 13.495 67.3167 9.695 65.67C5.95833 63.96 2.88667 61.5533 0.48 58.45L9.03 48.19C10.8667 50.5967 12.7983 52.4333 14.825 53.7C16.8517 54.9033 19.0367 55.505 21.38 55.505C27.65 55.505 30.785 51.8317 30.785 44.485V12.85H7.415V0.499995H46.08V43.63C46.08 51.8633 44.0533 58.0067 40 62.06C35.9467 66.1133 29.9933 68.14 22.14 68.14ZM51.1499 67L80.7899 0.499995H95.9899L125.725 67H109.575L85.2549 8.29H91.3349L66.9199 67H51.1499ZM65.9699 52.75L70.0549 41.065H104.255L108.435 52.75H65.9699ZM128.349 67V57.025L169.484 7.435L171.384 13.04H129.109V0.499995H185.064V10.475L144.024 60.065L142.124 54.46H186.489V67H128.349ZM192.085 67V57.025L233.22 7.435L235.12 13.04H192.845V0.499995H248.8V10.475L207.76 60.065L205.86 54.46H250.225V67H192.085ZM24.04 144.29H56.055V156.26H24.04V144.29ZM25.18 171.65H61.375V184H9.885V117.5H60.14V129.85H25.18V171.65ZM73.6204 184V117.5H103.83C111.05 117.5 117.415 118.893 122.925 121.68C128.435 124.403 132.742 128.235 135.845 133.175C138.949 138.115 140.5 143.973 140.5 150.75C140.5 157.463 138.949 163.322 135.845 168.325C132.742 173.265 128.435 177.128 122.925 179.915C117.415 182.638 111.05 184 103.83 184H73.6204ZM89.0104 171.365H103.07C107.504 171.365 111.335 170.542 114.565 168.895C117.859 167.185 120.392 164.778 122.165 161.675C124.002 158.572 124.92 154.93 124.92 150.75C124.92 146.507 124.002 142.865 122.165 139.825C120.392 136.722 117.859 134.347 114.565 132.7C111.335 130.99 107.504 130.135 103.07 130.135H89.0104V171.365ZM181.652 185.14C172.215 185.14 164.837 182.512 159.517 177.255C154.197 171.998 151.537 164.493 151.537 154.74V117.5H166.927V154.17C166.927 160.503 168.225 165.063 170.822 167.85C173.418 170.637 177.06 172.03 181.747 172.03C186.433 172.03 190.075 170.637 192.672 167.85C195.268 165.063 196.567 160.503 196.567 154.17V117.5H211.767V154.74C211.767 164.493 209.107 171.998 203.787 177.255C198.467 182.512 191.088 185.14 181.652 185.14ZM258.8 185.14C253.67 185.14 248.888 184.317 244.455 182.67C240.085 180.96 236.285 178.553 233.055 175.45C229.825 172.347 227.292 168.705 225.455 164.525C223.682 160.345 222.795 155.753 222.795 150.75C222.795 145.747 223.682 141.155 225.455 136.975C227.292 132.795 229.825 129.153 233.055 126.05C236.348 122.947 240.18 120.572 244.55 118.925C248.92 117.215 253.702 116.36 258.895 116.36C264.658 116.36 269.852 117.373 274.475 119.4C279.162 121.363 283.088 124.277 286.255 128.14L276.375 137.26C274.095 134.663 271.562 132.732 268.775 131.465C265.988 130.135 262.948 129.47 259.655 129.47C256.552 129.47 253.702 129.977 251.105 130.99C248.508 132.003 246.26 133.46 244.36 135.36C242.46 137.26 240.972 139.508 239.895 142.105C238.882 144.702 238.375 147.583 238.375 150.75C238.375 153.917 238.882 156.798 239.895 159.395C240.972 161.992 242.46 164.24 244.36 166.14C246.26 168.04 248.508 169.497 251.105 170.51C253.702 171.523 256.552 172.03 259.655 172.03C262.948 172.03 265.988 171.397 268.775 170.13C271.562 168.8 274.095 166.805 276.375 164.145L286.255 173.265C283.088 177.128 279.162 180.073 274.475 182.1C269.852 184.127 264.627 185.14 258.8 185.14ZM286.702 184L316.342 117.5H331.542L361.277 184H345.127L320.807 125.29H326.887L302.472 184H286.702ZM301.522 169.75L305.607 158.065H339.807L343.987 169.75H301.522ZM378.611 184V130.04H357.331V117.5H415.281V130.04H394.001V184H378.611ZM423.562 184V117.5H438.952V184H423.562ZM487.034 185.14C481.777 185.14 476.9 184.285 472.404 182.575C467.97 180.865 464.107 178.458 460.814 175.355C457.584 172.252 455.05 168.61 453.214 164.43C451.44 160.25 450.554 155.69 450.554 150.75C450.554 145.81 451.44 141.25 453.214 137.07C455.05 132.89 457.615 129.248 460.909 126.145C464.202 123.042 468.065 120.635 472.499 118.925C476.932 117.215 481.745 116.36 486.939 116.36C492.195 116.36 497.009 117.215 501.379 118.925C505.812 120.635 509.644 123.042 512.874 126.145C516.167 129.248 518.732 132.89 520.569 137.07C522.405 141.187 523.324 145.747 523.324 150.75C523.324 155.69 522.405 160.282 520.569 164.525C518.732 168.705 516.167 172.347 512.874 175.45C509.644 178.49 505.812 180.865 501.379 182.575C497.009 184.285 492.227 185.14 487.034 185.14ZM486.939 172.03C489.915 172.03 492.639 171.523 495.109 170.51C497.642 169.497 499.859 168.04 501.759 166.14C503.659 164.24 505.115 161.992 506.129 159.395C507.205 156.798 507.744 153.917 507.744 150.75C507.744 147.583 507.205 144.702 506.129 142.105C505.115 139.508 503.659 137.26 501.759 135.36C499.922 133.46 497.737 132.003 495.204 130.99C492.67 129.977 489.915 129.47 486.939 129.47C483.962 129.47 481.207 129.977 478.674 130.99C476.204 132.003 474.019 133.46 472.119 135.36C470.219 137.26 468.73 139.508 467.654 142.105C466.64 144.702 466.134 147.583 466.134 150.75C466.134 153.853 466.64 156.735 467.654 159.395C468.73 161.992 470.187 164.24 472.024 166.14C473.924 168.04 476.14 169.497 478.674 170.51C481.207 171.523 483.962 172.03 486.939 172.03ZM534.89 184V117.5H547.62L586.855 165.38H580.68V117.5H595.88V184H583.245L543.915 136.12H550.09V184H534.89ZM684.118 117.5H699.508V184H684.118V117.5ZM653.908 184H638.518V117.5H653.908V184ZM685.258 156.735H652.768V143.72H685.258V156.735ZM744.786 185.14C735.35 185.14 727.971 182.512 722.651 177.255C717.331 171.998 714.671 164.493 714.671 154.74V117.5H730.061V154.17C730.061 160.503 731.36 165.063 733.956 167.85C736.553 170.637 740.195 172.03 744.881 172.03C749.568 172.03 753.21 170.637 755.806 167.85C758.403 165.063 759.701 160.503 759.701 154.17V117.5H774.901V154.74C774.901 164.493 772.241 171.998 766.921 177.255C761.601 182.512 754.223 185.14 744.786 185.14ZM790.11 184V117.5H822.6C830.96 117.5 837.23 119.083 841.41 122.25C845.653 125.417 847.775 129.597 847.775 134.79C847.775 138.273 846.92 141.313 845.21 143.91C843.5 146.443 841.156 148.407 838.18 149.8C835.203 151.193 831.783 151.89 827.92 151.89L829.725 147.995C833.905 147.995 837.61 148.692 840.84 150.085C844.07 151.415 846.571 153.41 848.345 156.07C850.181 158.73 851.1 161.992 851.1 165.855C851.1 171.555 848.851 176.02 844.355 179.25C839.858 182.417 833.24 184 824.5 184H790.11ZM805.405 172.41H823.36C827.35 172.41 830.358 171.777 832.385 170.51C834.475 169.18 835.52 167.09 835.52 164.24C835.52 161.453 834.475 159.395 832.385 158.065C830.358 156.672 827.35 155.975 823.36 155.975H804.265V144.765H820.7C824.436 144.765 827.286 144.132 829.25 142.865C831.276 141.535 832.29 139.54 832.29 136.88C832.29 134.283 831.276 132.352 829.25 131.085C827.286 129.755 824.436 129.09 820.7 129.09H805.405V172.41Z"/>
</mask>
<path d="M9.695 65.67L8.98255 67.2268L8.99833 67.2341L9.01425 67.241L9.695 65.67ZM0.48 58.45L-0.835282 57.3539L-1.71654 58.4114L-0.872946 59.4992L0.48 58.45ZM9.03 48.19L10.391 47.1513L9.08885 45.445L7.71472 47.0939L9.03 48.19ZM14.825 53.7L13.9176 55.1519L13.9341 55.1622L13.9509 55.1722L14.825 53.7ZM30.785 12.85H32.4971V11.1379H30.785V12.85ZM7.415 12.85H5.70289V14.5621H7.415V12.85ZM7.415 0.499996V-1.21212H5.70289V0.499996H7.415ZM46.08 0.499996H47.7921V-1.21212H46.08V0.499996ZM40 62.06L38.7894 60.8493L40 62.06ZM22.14 66.4279C17.8572 66.4279 13.943 65.6449 10.3757 64.099L9.01425 67.241C13.047 68.9885 17.4294 69.8521 22.14 69.8521V66.4279ZM10.4075 64.1132C6.91009 62.5127 4.06229 60.2755 1.83295 57.4008L-0.872946 59.4992C1.71105 62.8312 5.00658 65.4073 8.98255 67.2268L10.4075 64.1132ZM1.79528 59.5461L10.3453 49.2861L7.71472 47.0939L-0.835282 57.3539L1.79528 59.5461ZM7.66895 49.2287C9.59878 51.7574 11.6764 53.7511 13.9176 55.1519L15.7324 52.2481C13.9203 51.1156 12.1346 49.4359 10.391 47.1513L7.66895 49.2287ZM13.9509 55.1722C16.2405 56.5316 18.7271 57.2171 21.38 57.2171V53.7929C19.3462 53.7929 17.4629 53.2751 15.6991 52.2278L13.9509 55.1722ZM21.38 57.2171C24.8561 57.2171 27.7521 56.1861 29.7361 53.8615C31.6757 51.5887 32.4971 48.3617 32.4971 44.485H29.0729C29.0729 47.9549 28.3268 50.238 27.1314 51.6385C25.9804 52.9872 24.1739 53.7929 21.38 53.7929V57.2171ZM32.4971 44.485V12.85H29.0729V44.485H32.4971ZM30.785 11.1379H7.415V14.5621H30.785V11.1379ZM9.12711 12.85V0.499996H5.70289V12.85H9.12711ZM7.415 2.21211H46.08V-1.21212H7.415V2.21211ZM44.3679 0.499996V43.63H47.7921V0.499996H44.3679ZM44.3679 43.63C44.3679 51.6084 42.4039 57.2348 38.7894 60.8493L41.2106 63.2706C45.7028 58.7785 47.7921 52.1183 47.7921 43.63H44.3679ZM38.7894 60.8493C35.1611 64.4776 29.7111 66.4279 22.14 66.4279V69.8521C30.2755 69.8521 36.7323 67.749 41.2106 63.2706L38.7894 60.8493ZM51.1499 67L49.5861 66.303L48.5123 68.7121H51.1499V67ZM80.7899 0.499996V-1.21212H79.6785L79.2261 -0.197018L80.7899 0.499996ZM95.9899 0.499996L97.5529 -0.198879L97.0998 -1.21212H95.9899V0.499996ZM125.725 67V68.7121H128.366L127.288 66.3011L125.725 67ZM109.575 67L107.993 67.6552L108.431 68.7121H109.575V67ZM85.2549 8.29V6.57788H82.6925L83.6731 8.94523L85.2549 8.29ZM91.3349 8.29L92.9157 8.94741L93.9011 6.57788H91.3349V8.29ZM66.9199 67V68.7121H68.0621L68.5007 67.6574L66.9199 67ZM65.9699 52.75L64.3537 52.185L63.5576 54.4621H65.9699V52.75ZM70.0549 41.065V39.3529H68.8397L68.4387 40.5L70.0549 41.065ZM104.255 41.065L105.867 40.4883L105.461 39.3529H104.255V41.065ZM108.435 52.75V54.4621H110.866L110.047 52.1733L108.435 52.75ZM52.7137 67.697L82.3537 1.19701L79.2261 -0.197018L49.5861 66.303L52.7137 67.697ZM80.7899 2.21211H95.9899V-1.21212H80.7899V2.21211ZM94.4269 1.19887L124.162 67.6989L127.288 66.3011L97.5529 -0.198879L94.4269 1.19887ZM125.725 65.2879H109.575V68.7121H125.725V65.2879ZM111.157 66.3448L86.8367 7.63477L83.6731 8.94523L107.993 67.6552L111.157 66.3448ZM85.2549 10.0021H91.3349V6.57788H85.2549V10.0021ZM89.754 7.63258L65.339 66.3426L68.5007 67.6574L92.9157 8.94741L89.754 7.63258ZM66.9199 65.2879H51.1499V68.7121H66.9199V65.2879ZM67.5861 53.315L71.6711 41.63L68.4387 40.5L64.3537 52.185L67.5861 53.315ZM70.0549 42.7771H104.255V39.3529H70.0549V42.7771ZM102.643 41.6417L106.823 53.3267L110.047 52.1733L105.867 40.4883L102.643 41.6417ZM108.435 51.0379H65.9699V54.4621H108.435V51.0379ZM128.349 67H126.637V68.7121H128.349V67ZM128.349 57.025L127.031 55.9319L126.637 56.4073V57.025H128.349ZM169.484 7.435L171.106 6.88534L170.122 3.98413L168.167 6.34191L169.484 7.435ZM171.384 13.04V14.7521H173.772L173.006 12.4903L171.384 13.04ZM129.109 13.04H127.397V14.7521H129.109V13.04ZM129.109 0.499996V-1.21212H127.397V0.499996H129.109ZM185.064 0.499996H186.776V-1.21212H185.064V0.499996ZM185.064 10.475L186.383 11.5666L186.776 11.0916V10.475H185.064ZM144.024 60.065L142.403 60.6147L143.388 63.5197L145.343 61.1566L144.024 60.065ZM142.124 54.46V52.7479H139.736L140.503 55.0097L142.124 54.46ZM186.489 54.46H188.201V52.7479H186.489V54.46ZM186.489 67V68.7121H188.201V67H186.489ZM130.061 67V57.025H126.637V67H130.061ZM129.667 58.1181L170.802 8.52808L168.167 6.34191L127.031 55.9319L129.667 58.1181ZM167.863 7.98465L169.763 13.5897L173.006 12.4903L171.106 6.88534L167.863 7.98465ZM171.384 11.3279H129.109V14.7521H171.384V11.3279ZM130.821 13.04V0.499996H127.397V13.04H130.821ZM129.109 2.21211H185.064V-1.21212H129.109V2.21211ZM183.352 0.499996V10.475H186.776V0.499996H183.352ZM183.745 9.38341L142.705 58.9734L145.343 61.1566L186.383 11.5666L183.745 9.38341ZM145.646 59.5153L143.746 53.9103L140.503 55.0097L142.403 60.6147L145.646 59.5153ZM142.124 56.1721H186.489V52.7479H142.124V56.1721ZM184.777 54.46V67H188.201V54.46H184.777ZM186.489 65.2879H128.349V68.7121H186.489V65.2879ZM192.085 67H190.372V68.7121H192.085V67ZM192.085 57.025L190.767 55.9319L190.372 56.4073V57.025H192.085ZM233.22 7.435L234.841 6.88534L233.858 3.98413L231.902 6.34191L233.22 7.435ZM235.12 13.04V14.7521H237.508L236.741 12.4903L235.12 13.04ZM192.845 13.04H191.132V14.7521H192.845V13.04ZM192.845 0.499996V-1.21212H191.132V0.499996H192.845ZM248.8 0.499996H250.512V-1.21212H248.8V0.499996ZM248.8 10.475L250.119 11.5666L250.512 11.0916V10.475H248.8ZM207.76 60.065L206.138 60.6147L207.123 63.5197L209.079 61.1566L207.76 60.065ZM205.86 54.46V52.7479H203.471L204.238 55.0097L205.86 54.46ZM250.225 54.46H251.937V52.7479H250.225V54.46ZM250.225 67V68.7121H251.937V67H250.225ZM193.797 67V57.025H190.372V67H193.797ZM193.402 58.1181L234.537 8.52808L231.902 6.34191L190.767 55.9319L193.402 58.1181ZM231.598 7.98465L233.498 13.5897L236.741 12.4903L234.841 6.88534L231.598 7.98465ZM235.12 11.3279H192.845V14.7521H235.12V11.3279ZM194.557 13.04V0.499996H191.132V13.04H194.557ZM192.845 2.21211H248.8V-1.21212H192.845V2.21211ZM247.087 0.499996V10.475H250.512V0.499996H247.087ZM247.481 9.38341L206.441 58.9734L209.079 61.1566L250.119 11.5666L247.481 9.38341ZM209.381 59.5153L207.481 53.9103L204.238 55.0097L206.138 60.6147L209.381 59.5153ZM205.86 56.1721H250.225V52.7479H205.86V56.1721ZM248.512 54.46V67H251.937V54.46H248.512ZM250.225 65.2879H192.085V68.7121H250.225V65.2879ZM24.04 144.29V142.578H22.3279V144.29H24.04ZM56.055 144.29H57.7671V142.578H56.055V144.29ZM56.055 156.26V157.972H57.7671V156.26H56.055ZM24.04 156.26H22.3279V157.972H24.04V156.26ZM25.18 171.65H23.4679V173.362H25.18V171.65ZM61.375 171.65H63.0871V169.938H61.375V171.65ZM61.375 184V185.712H63.0871V184H61.375ZM9.885 184H8.17289V185.712H9.885V184ZM9.885 117.5V115.788H8.17289V117.5H9.885ZM60.14 117.5H61.8521V115.788H60.14V117.5ZM60.14 129.85V131.562H61.8521V129.85H60.14ZM25.18 129.85V128.138H23.4679V129.85H25.18ZM24.04 146.002H56.055V142.578H24.04V146.002ZM54.3429 144.29V156.26H57.7671V144.29H54.3429ZM56.055 154.548H24.04V157.972H56.055V154.548ZM25.7521 156.26V144.29H22.3279V156.26H25.7521ZM25.18 173.362H61.375V169.938H25.18V173.362ZM59.6629 171.65V184H63.0871V171.65H59.6629ZM61.375 182.288H9.885V185.712H61.375V182.288ZM11.5971 184V117.5H8.17289V184H11.5971ZM9.885 119.212H60.14V115.788H9.885V119.212ZM58.4279 117.5V129.85H61.8521V117.5H58.4279ZM60.14 128.138H25.18V131.562H60.14V128.138ZM23.4679 129.85V171.65H26.8921V129.85H23.4679ZM73.6204 184H71.9082V185.712H73.6204V184ZM73.6204 117.5V115.788H71.9082V117.5H73.6204ZM122.925 121.68L122.153 123.208L122.16 123.211L122.167 123.215L122.925 121.68ZM135.845 133.175L134.396 134.086L135.845 133.175ZM135.845 168.325L137.295 169.236L137.3 169.227L135.845 168.325ZM122.925 179.915L123.684 181.45L123.691 181.446L123.698 181.443L122.925 179.915ZM89.0104 171.365H87.2982V173.077H89.0104V171.365ZM114.565 168.895L115.343 170.42L115.354 170.414L114.565 168.895ZM122.165 161.675L120.692 160.803L120.685 160.814L120.679 160.826L122.165 161.675ZM122.165 139.825L120.679 140.674L120.689 140.693L120.7 140.71L122.165 139.825ZM114.565 132.7L113.764 134.213L113.782 134.222L113.8 134.231L114.565 132.7ZM89.0104 130.135V128.423H87.2982V130.135H89.0104ZM75.3325 184V117.5H71.9082V184H75.3325ZM73.6204 119.212H103.83V115.788H73.6204V119.212ZM103.83 119.212C110.827 119.212 116.92 120.561 122.153 123.208L123.698 120.152C117.911 117.225 111.273 115.788 103.83 115.788V119.212ZM122.167 123.215C127.409 125.806 131.47 129.428 134.396 134.086L137.295 132.264C134.014 127.042 129.462 123.001 123.684 120.145L122.167 123.215ZM134.396 134.086C137.301 138.711 138.788 144.242 138.788 150.75H142.212C142.212 143.704 140.596 137.519 137.295 132.264L134.396 134.086ZM138.788 150.75C138.788 157.19 137.303 162.727 134.39 167.423L137.3 169.227C140.594 163.917 142.212 157.736 142.212 150.75H138.788ZM134.396 167.414C131.467 172.075 127.402 175.732 122.153 178.387L123.698 181.443C129.469 178.524 134.017 174.455 137.295 169.236L134.396 167.414ZM122.167 178.38C116.93 180.968 110.833 182.288 103.83 182.288V185.712C111.268 185.712 117.9 184.309 123.684 181.45L122.167 178.38ZM103.83 182.288H73.6204V185.712H103.83V182.288ZM89.0104 173.077H103.07V169.653H89.0104V173.077ZM103.07 173.077C107.715 173.077 111.824 172.214 115.343 170.42L113.788 167.37C110.846 168.869 107.293 169.653 103.07 169.653V173.077ZM115.354 170.414C118.928 168.559 121.709 165.925 123.652 162.524L120.679 160.826C119.075 163.632 116.789 165.811 113.776 167.376L115.354 170.414ZM123.639 162.547C125.655 159.14 126.632 155.187 126.632 150.75H123.208C123.208 154.673 122.349 158.003 120.692 160.803L123.639 162.547ZM126.632 150.75C126.632 146.256 125.658 142.295 123.631 138.94L120.7 140.71C122.346 143.435 123.208 146.758 123.208 150.75H126.632ZM123.652 138.976C121.706 135.569 118.917 132.962 115.331 131.169L113.8 134.231C116.8 135.732 119.078 137.874 120.679 140.674L123.652 138.976ZM115.366 131.187C111.842 129.321 107.724 128.423 103.07 128.423V131.847C107.283 131.847 110.828 132.659 113.764 134.213L115.366 131.187ZM103.07 128.423H89.0104V131.847H103.07V128.423ZM87.2982 130.135V171.365H90.7225V130.135H87.2982ZM159.517 177.255L160.72 176.037L159.517 177.255ZM151.537 117.5V115.788H149.825V117.5H151.537ZM166.927 117.5H168.639V115.788H166.927V117.5ZM170.822 167.85L169.569 169.017H169.569L170.822 167.85ZM192.672 167.85L193.924 169.017L192.672 167.85ZM196.567 117.5V115.788H194.855V117.5H196.567ZM211.767 117.5H213.479V115.788H211.767V117.5ZM203.787 177.255L204.99 178.473L203.787 177.255ZM181.652 183.428C172.542 183.428 165.641 180.9 160.72 176.037L158.313 178.473C164.032 184.124 171.888 186.852 181.652 186.852V183.428ZM160.72 176.037C155.816 171.192 153.249 164.181 153.249 154.74H149.825C149.825 164.806 152.577 172.805 158.313 178.473L160.72 176.037ZM153.249 154.74V117.5H149.825V154.74H153.249ZM151.537 119.212H166.927V115.788H151.537V119.212ZM165.215 117.5V154.17H168.639V117.5H165.215ZM165.215 154.17C165.215 160.668 166.534 165.76 169.569 169.017L172.074 166.683C169.916 164.366 168.639 160.339 168.639 154.17H165.215ZM169.569 169.017C172.562 172.229 176.703 173.742 181.747 173.742V170.318C177.418 170.318 174.275 169.044 172.074 166.683L169.569 169.017ZM181.747 173.742C186.791 173.742 190.931 172.229 193.924 169.017L191.419 166.683C189.219 169.044 186.076 170.318 181.747 170.318V173.742ZM193.924 169.017C196.959 165.76 198.279 160.668 198.279 154.17H194.855C194.855 160.339 193.578 164.366 191.419 166.683L193.924 169.017ZM198.279 154.17V117.5H194.855V154.17H198.279ZM196.567 119.212H211.767V115.788H196.567V119.212ZM210.055 117.5V154.74H213.479V117.5H210.055ZM210.055 154.74C210.055 164.181 207.487 171.192 202.583 176.037L204.99 178.473C210.726 172.805 213.479 164.806 213.479 154.74H210.055ZM202.583 176.037C197.662 180.9 190.762 183.428 181.652 183.428V186.852C191.415 186.852 199.271 184.124 204.99 178.473L202.583 176.037ZM244.455 182.67L243.831 184.264L243.845 184.27L243.859 184.275L244.455 182.67ZM233.055 175.45L231.869 176.685L233.055 175.45ZM225.455 164.525L223.879 165.194L223.883 165.204L223.887 165.214L225.455 164.525ZM225.455 136.975L223.887 136.286L223.883 136.296L223.879 136.306L225.455 136.975ZM233.055 126.05L231.881 124.804L231.875 124.81L231.869 124.815L233.055 126.05ZM244.55 118.925L245.154 120.527L245.164 120.523L245.174 120.519L244.55 118.925ZM274.475 119.4L273.787 120.968L273.8 120.974L273.813 120.979L274.475 119.4ZM286.255 128.14L287.416 129.398L288.602 128.303L287.579 127.055L286.255 128.14ZM276.375 137.26L275.088 138.39L276.246 139.709L277.536 138.518L276.375 137.26ZM268.775 131.465L268.037 133.01L268.052 133.017L268.066 133.024L268.775 131.465ZM244.36 135.36L245.57 136.571L244.36 135.36ZM239.895 142.105L238.313 141.449L238.306 141.466L238.3 141.483L239.895 142.105ZM239.895 159.395L238.3 160.017L238.306 160.034L238.313 160.051L239.895 159.395ZM244.36 166.14L243.149 167.351L244.36 166.14ZM268.775 170.13L269.483 171.689L269.498 171.682L269.512 171.675L268.775 170.13ZM276.375 164.145L277.536 162.887L276.231 161.682L275.075 163.031L276.375 164.145ZM286.255 173.265L287.579 174.35L288.602 173.102L287.416 172.007L286.255 173.265ZM274.475 182.1L273.795 180.529L273.787 180.532L274.475 182.1ZM258.8 183.428C253.856 183.428 249.278 182.635 245.051 181.065L243.859 184.275C248.498 185.998 253.484 186.852 258.8 186.852V183.428ZM245.079 181.076C240.908 179.444 237.301 177.156 234.241 174.215L231.869 176.685C235.268 179.951 239.262 182.476 243.831 184.264L245.079 181.076ZM234.241 174.215C231.176 171.27 228.771 167.815 227.022 163.836L223.887 165.214C225.812 169.595 228.474 173.423 231.869 176.685L234.241 174.215ZM227.031 163.856C225.356 159.908 224.507 155.547 224.507 150.75H221.083C221.083 155.96 222.007 160.782 223.879 165.194L227.031 163.856ZM224.507 150.75C224.507 145.953 225.356 141.592 227.031 137.644L223.879 136.306C222.007 140.718 221.083 145.54 221.083 150.75H224.507ZM227.022 137.664C228.771 133.685 231.176 130.23 234.241 127.285L231.869 124.815C228.474 128.077 225.812 131.905 223.887 136.286L227.022 137.664ZM234.229 127.296C237.352 124.353 240.988 122.097 245.154 120.527L243.946 117.323C239.371 119.047 235.344 121.54 231.881 124.804L234.229 127.296ZM245.174 120.519C249.325 118.895 253.892 118.072 258.895 118.072V114.648C253.511 114.648 248.515 115.535 243.926 117.331L245.174 120.519ZM258.895 118.072C264.455 118.072 269.409 119.049 273.787 120.968L275.162 117.832C270.294 115.698 264.861 114.648 258.895 114.648V118.072ZM273.813 120.979C278.247 122.836 281.944 125.582 284.931 129.225L287.579 127.055C284.232 122.971 280.076 119.89 275.136 117.821L273.813 120.979ZM285.094 126.882L275.214 136.002L277.536 138.518L287.416 129.398L285.094 126.882ZM277.661 136.13C275.242 133.375 272.518 131.286 269.483 129.906L268.066 133.024C270.605 134.178 272.948 135.952 275.088 138.39L277.661 136.13ZM269.512 129.92C266.48 128.473 263.186 127.758 259.655 127.758V131.182C262.71 131.182 265.496 131.797 268.037 133.01L269.512 129.92ZM259.655 127.758C256.363 127.758 253.299 128.296 250.482 129.395L251.727 132.585C254.104 131.657 256.74 131.182 259.655 131.182V127.758ZM250.482 129.395C247.674 130.491 245.223 132.076 243.149 134.149L245.57 136.571C247.297 134.844 249.343 133.516 251.727 132.585L250.482 129.395ZM243.149 134.149C241.083 136.215 239.472 138.655 238.313 141.449L241.476 142.761C242.471 140.362 243.837 138.305 245.57 136.571L243.149 134.149ZM238.3 141.483C237.199 144.303 236.663 147.399 236.663 150.75H240.087C240.087 147.768 240.564 145.101 241.49 142.727L238.3 141.483ZM236.663 150.75C236.663 154.101 237.199 157.197 238.3 160.017L241.49 158.773C240.564 156.399 240.087 153.732 240.087 150.75H236.663ZM238.313 160.051C239.472 162.845 241.083 165.285 243.149 167.351L245.57 164.929C243.837 163.195 242.471 161.138 241.476 158.739L238.313 160.051ZM243.149 167.351C245.223 169.424 247.674 171.009 250.482 172.105L251.727 168.915C249.343 167.984 247.297 166.656 245.57 164.929L243.149 167.351ZM250.482 172.105C253.299 173.204 256.363 173.742 259.655 173.742V170.318C256.74 170.318 254.104 169.843 251.727 168.915L250.482 172.105ZM259.655 173.742C263.174 173.742 266.458 173.064 269.483 171.689L268.066 168.571C265.519 169.729 262.723 170.318 259.655 170.318V173.742ZM269.512 171.675C272.542 170.229 275.26 168.076 277.675 165.259L275.075 163.031C272.929 165.534 270.581 167.371 268.037 168.585L269.512 171.675ZM275.214 165.403L285.094 174.523L287.416 172.007L277.536 162.887L275.214 165.403ZM284.931 172.18C281.941 175.827 278.237 178.608 273.795 180.529L275.154 183.671C280.086 181.539 284.235 178.43 287.579 174.35L284.931 172.18ZM273.787 180.532C269.412 182.45 264.426 183.428 258.8 183.428V186.852C264.827 186.852 270.291 185.803 275.162 183.668L273.787 180.532ZM286.702 184L285.138 183.303L284.064 185.712H286.702V184ZM316.342 117.5V115.788H315.23L314.778 116.803L316.342 117.5ZM331.542 117.5L333.105 116.801L332.652 115.788H331.542V117.5ZM361.277 184V185.712H363.918L362.84 183.301L361.277 184ZM345.127 184L343.545 184.655L343.983 185.712H345.127V184ZM320.807 125.29V123.578H318.244L319.225 125.945L320.807 125.29ZM326.887 125.29L328.467 125.947L329.453 123.578H326.887V125.29ZM302.472 184V185.712H303.614L304.053 184.657L302.472 184ZM301.522 169.75L299.905 169.185L299.109 171.462H301.522V169.75ZM305.607 158.065V156.353H304.391L303.99 157.5L305.607 158.065ZM339.807 158.065L341.419 157.488L341.013 156.353H339.807V158.065ZM343.987 169.75V171.462H346.417L345.599 169.173L343.987 169.75ZM288.265 184.697L317.905 118.197L314.778 116.803L285.138 183.303L288.265 184.697ZM316.342 119.212H331.542V115.788H316.342V119.212ZM329.979 118.199L359.714 184.699L362.84 183.301L333.105 116.801L329.979 118.199ZM361.277 182.288H345.127V185.712H361.277V182.288ZM346.708 183.345L322.388 124.635L319.225 125.945L343.545 184.655L346.708 183.345ZM320.807 127.002H326.887V123.578H320.807V127.002ZM325.306 124.633L300.891 183.343L304.053 184.657L328.467 125.947L325.306 124.633ZM302.472 182.288H286.702V185.712H302.472V182.288ZM303.138 170.315L307.223 158.63L303.99 157.5L299.905 169.185L303.138 170.315ZM305.607 159.777H339.807V156.353H305.607V159.777ZM338.195 158.642L342.375 170.327L345.599 169.173L341.419 157.488L338.195 158.642ZM343.987 168.038H301.522V171.462H343.987V168.038ZM378.611 184H376.899V185.712H378.611V184ZM378.611 130.04H380.323V128.328H378.611V130.04ZM357.331 130.04H355.619V131.752H357.331V130.04ZM357.331 117.5V115.788H355.619V117.5H357.331ZM415.281 117.5H416.993V115.788H415.281V117.5ZM415.281 130.04V131.752H416.993V130.04H415.281ZM394.001 130.04V128.328H392.289V130.04H394.001ZM394.001 184V185.712H395.713V184H394.001ZM380.323 184V130.04H376.899V184H380.323ZM378.611 128.328H357.331V131.752H378.611V128.328ZM359.043 130.04V117.5H355.619V130.04H359.043ZM357.331 119.212H415.281V115.788H357.331V119.212ZM413.569 117.5V130.04H416.993V117.5H413.569ZM415.281 128.328H394.001V131.752H415.281V128.328ZM392.289 130.04V184H395.713V130.04H392.289ZM394.001 182.288H378.611V185.712H394.001V182.288ZM423.562 184H421.85V185.712H423.562V184ZM423.562 117.5V115.788H421.85V117.5H423.562ZM438.952 117.5H440.664V115.788H438.952V117.5ZM438.952 184V185.712H440.664V184H438.952ZM425.274 184V117.5H421.85V184H425.274ZM423.562 119.212H438.952V115.788H423.562V119.212ZM437.24 117.5V184H440.664V117.5H437.24ZM438.952 182.288H423.562V185.712H438.952V182.288ZM472.404 182.575L471.787 184.172L471.795 184.175L472.404 182.575ZM460.814 175.355L459.627 176.59L459.633 176.595L459.639 176.601L460.814 175.355ZM453.214 164.43L451.637 165.099L451.642 165.109L451.646 165.119L453.214 164.43ZM453.214 137.07L451.646 136.381L451.642 136.391L451.637 136.401L453.214 137.07ZM472.499 118.925L471.883 117.328L472.499 118.925ZM501.379 118.925L500.755 120.519L500.762 120.522L501.379 118.925ZM512.874 126.145L511.687 127.38L511.693 127.385L511.699 127.391L512.874 126.145ZM520.569 137.07L519.001 137.759L519.005 137.768L520.569 137.07ZM520.569 164.525L522.136 165.214L522.14 165.205L520.569 164.525ZM512.874 175.45L514.047 176.697L514.048 176.696L512.874 175.45ZM501.379 182.575L500.762 180.978L500.755 180.981L501.379 182.575ZM495.109 170.51L494.473 168.92L494.466 168.923L494.459 168.926L495.109 170.51ZM501.759 166.14L500.548 164.929L501.759 166.14ZM506.129 159.395L504.547 158.739L504.54 158.756L504.534 158.773L506.129 159.395ZM506.129 142.105L504.534 142.727L504.54 142.744L504.547 142.761L506.129 142.105ZM501.759 135.36L500.528 136.55L500.538 136.56L500.548 136.571L501.759 135.36ZM495.204 130.99L494.568 132.58L495.204 130.99ZM478.674 130.99L478.038 129.4L478.031 129.403L478.024 129.406L478.674 130.99ZM472.119 135.36L473.329 136.571L472.119 135.36ZM467.654 142.105L466.072 141.449L466.065 141.466L466.059 141.483L467.654 142.105ZM467.654 159.395L466.054 160.005L466.063 160.028L466.072 160.051L467.654 159.395ZM472.024 166.14L470.793 167.33L470.803 167.34L470.813 167.351L472.024 166.14ZM478.674 170.51L478.038 172.1L478.674 170.51ZM487.034 183.428C481.966 183.428 477.297 182.604 473.012 180.975L471.795 184.175C476.503 185.966 481.588 186.852 487.034 186.852V183.428ZM473.02 180.978C468.783 179.343 465.112 177.053 461.988 174.109L459.639 176.601C463.102 179.864 467.158 182.387 471.788 184.172L473.02 180.978ZM462 174.12C458.935 171.175 456.529 167.72 454.781 163.741L451.646 165.119C453.571 169.5 456.233 173.328 459.627 176.59L462 174.12ZM454.79 163.761C453.114 159.811 452.266 155.481 452.266 150.75H448.842C448.842 155.899 449.767 160.689 451.637 165.099L454.79 163.761ZM452.266 150.75C452.266 146.019 453.114 141.689 454.79 137.739L451.637 136.401C449.767 140.811 448.842 145.601 448.842 150.75H452.266ZM454.781 137.759C456.526 133.787 458.958 130.335 462.083 127.391L459.734 124.899C456.272 128.161 453.574 131.993 451.646 136.381L454.781 137.759ZM462.083 127.391C465.207 124.447 468.878 122.157 473.115 120.522L471.883 117.328C467.253 119.113 463.197 121.636 459.734 124.899L462.083 127.391ZM473.115 120.522C477.334 118.895 481.936 118.072 486.939 118.072V114.648C481.554 114.648 476.53 115.535 471.883 117.328L473.115 120.522ZM486.939 118.072C492.007 118.072 496.606 118.896 500.755 120.519L502.003 117.331C497.411 115.534 492.383 114.648 486.939 114.648V118.072ZM500.762 120.522C504.997 122.156 508.631 124.443 511.687 127.38L514.06 124.91C510.656 121.64 506.627 119.114 501.995 117.328L500.762 120.522ZM511.699 127.391C514.824 130.335 517.256 133.787 519.001 137.759L522.136 136.381C520.208 131.993 517.51 128.161 514.048 124.899L511.699 127.391ZM519.005 137.768C520.734 141.642 521.612 145.96 521.612 150.75H525.036C525.036 145.533 524.077 140.732 522.132 136.372L519.005 137.768ZM521.612 150.75C521.612 155.472 520.735 159.831 518.997 163.845L522.14 165.205C524.076 160.733 525.036 155.908 525.036 150.75H521.612ZM519.001 163.836C517.256 167.808 514.824 171.26 511.699 174.204L514.048 176.696C517.51 173.434 520.208 169.602 522.136 165.214L519.001 163.836ZM511.7 174.203C508.643 177.081 505.004 179.342 500.762 180.978L501.995 184.172C506.62 182.388 510.645 179.899 514.047 176.697L511.7 174.203ZM500.755 180.981C496.604 182.605 492.036 183.428 487.034 183.428V186.852C492.418 186.852 497.414 185.965 502.003 184.169L500.755 180.981ZM486.939 173.742C490.113 173.742 493.06 173.201 495.758 172.094L494.459 168.926C492.217 169.846 489.718 170.318 486.939 170.318V173.742ZM495.745 172.1C498.49 171.002 500.903 169.417 502.969 167.351L500.548 164.929C498.815 166.663 496.794 167.992 494.473 168.92L495.745 172.1ZM502.969 167.351C505.043 165.277 506.628 162.826 507.724 160.017L504.534 158.773C503.603 161.157 502.274 163.203 500.548 164.929L502.969 167.351ZM507.71 160.051C508.883 157.222 509.456 154.113 509.456 150.75H506.032C506.032 153.72 505.527 156.375 504.547 158.739L507.71 160.051ZM509.456 150.75C509.456 147.387 508.883 144.278 507.71 141.449L504.547 142.761C505.527 145.125 506.032 147.78 506.032 150.75H509.456ZM507.724 141.483C506.628 138.674 505.043 136.223 502.969 134.149L500.548 136.571C502.274 138.297 503.603 140.343 504.534 142.727L507.724 141.483ZM502.99 134.17C500.979 132.091 498.59 130.5 495.84 129.4L494.568 132.58C496.884 133.506 498.864 134.829 500.528 136.55L502.99 134.17ZM495.84 129.4C493.086 128.299 490.113 127.758 486.939 127.758V131.182C489.717 131.182 492.254 131.654 494.568 132.58L495.84 129.4ZM486.939 127.758C483.764 127.758 480.791 128.299 478.038 129.4L479.31 132.58C481.623 131.654 484.16 131.182 486.939 131.182V127.758ZM478.024 129.406C475.343 130.506 472.967 132.09 470.908 134.149L473.329 136.571C475.07 134.83 477.065 133.501 479.323 132.574L478.024 129.406ZM470.908 134.149C468.842 136.215 467.231 138.655 466.072 141.449L469.235 142.761C470.23 140.362 471.595 138.305 473.329 136.571L470.908 134.149ZM466.059 141.483C464.958 144.303 464.422 147.399 464.422 150.75H467.846C467.846 147.768 468.322 145.101 469.249 142.727L466.059 141.483ZM464.422 150.75C464.422 154.043 464.96 157.133 466.054 160.005L469.254 158.785C468.321 156.337 467.846 153.664 467.846 150.75H464.422ZM466.072 160.051C467.226 162.833 468.797 165.266 470.793 167.33L473.255 164.95C471.577 163.214 470.235 161.15 469.235 158.739L466.072 160.051ZM470.813 167.351C472.88 169.417 475.293 171.002 478.038 172.1L479.31 168.92C476.988 167.992 474.968 166.663 473.234 164.929L470.813 167.351ZM478.038 172.1C480.791 173.201 483.764 173.742 486.939 173.742V170.318C484.16 170.318 481.623 169.846 479.31 168.92L478.038 172.1ZM534.89 184H533.178V185.712H534.89V184ZM534.89 117.5V115.788H533.178V117.5H534.89ZM547.62 117.5L548.944 116.415L548.43 115.788H547.62V117.5ZM586.855 165.38V167.092H590.471L588.179 164.295L586.855 165.38ZM580.68 165.38H578.968V167.092H580.68V165.38ZM580.68 117.5V115.788H578.968V117.5H580.68ZM595.88 117.5H597.592V115.788H595.88V117.5ZM595.88 184V185.712H597.592V184H595.88ZM583.245 184L581.922 185.087L582.436 185.712H583.245V184ZM543.915 136.12V134.408H540.293L542.592 137.207L543.915 136.12ZM550.09 136.12H551.802V134.408H550.09V136.12ZM550.09 184V185.712H551.802V184H550.09ZM536.602 184V117.5H533.178V184H536.602ZM534.89 119.212H547.62V115.788H534.89V119.212ZM546.296 118.585L585.531 166.465L588.179 164.295L548.944 116.415L546.296 118.585ZM586.855 163.668H580.68V167.092H586.855V163.668ZM582.392 165.38V117.5H578.968V165.38H582.392ZM580.68 119.212H595.88V115.788H580.68V119.212ZM594.168 117.5V184H597.592V117.5H594.168ZM595.88 182.288H583.245V185.712H595.88V182.288ZM584.568 182.913L545.238 135.033L542.592 137.207L581.922 185.087L584.568 182.913ZM543.915 137.832H550.09V134.408H543.915V137.832ZM548.378 136.12V184H551.802V136.12H548.378ZM550.09 182.288H534.89V185.712H550.09V182.288ZM684.118 117.5V115.788H682.406V117.5H684.118ZM699.508 117.5H701.22V115.788H699.508V117.5ZM699.508 184V185.712H701.22V184H699.508ZM684.118 184H682.406V185.712H684.118V184ZM653.908 184V185.712H655.62V184H653.908ZM638.518 184H636.806V185.712H638.518V184ZM638.518 117.5V115.788H636.806V117.5H638.518ZM653.908 117.5H655.62V115.788H653.908V117.5ZM685.258 156.735V158.447H686.97V156.735H685.258ZM652.768 156.735H651.056V158.447H652.768V156.735ZM652.768 143.72V142.008H651.056V143.72H652.768ZM685.258 143.72H686.97V142.008H685.258V143.72ZM684.118 119.212H699.508V115.788H684.118V119.212ZM697.796 117.5V184H701.22V117.5H697.796ZM699.508 182.288H684.118V185.712H699.508V182.288ZM685.83 184V117.5H682.406V184H685.83ZM653.908 182.288H638.518V185.712H653.908V182.288ZM640.23 184V117.5H636.806V184H640.23ZM638.518 119.212H653.908V115.788H638.518V119.212ZM652.196 117.5V184H655.62V117.5H652.196ZM685.258 155.023H652.768V158.447H685.258V155.023ZM654.48 156.735V143.72H651.056V156.735H654.48ZM652.768 145.432H685.258V142.008H652.768V145.432ZM683.546 143.72V156.735H686.97V143.72H683.546ZM722.651 177.255L723.855 176.037L722.651 177.255ZM714.671 117.5V115.788H712.959V117.5H714.671ZM730.061 117.5H731.774V115.788H730.061V117.5ZM733.956 167.85L732.704 169.017L733.956 167.85ZM755.806 167.85L757.059 169.017L755.806 167.85ZM759.701 117.5V115.788H757.989V117.5H759.701ZM774.901 117.5H776.614V115.788H774.901V117.5ZM766.921 177.255L768.125 178.473L766.921 177.255ZM744.786 183.428C735.676 183.428 728.776 180.9 723.855 176.037L721.448 178.473C727.167 184.124 735.023 186.852 744.786 186.852V183.428ZM723.855 176.037C718.951 171.192 716.384 164.181 716.384 154.74H712.959C712.959 164.806 715.712 172.805 721.448 178.473L723.855 176.037ZM716.384 154.74V117.5H712.959V154.74H716.384ZM714.671 119.212H730.061V115.788H714.671V119.212ZM728.349 117.5V154.17H731.774V117.5H728.349ZM728.349 154.17C728.349 160.668 729.669 165.76 732.704 169.017L735.209 166.683C733.051 164.366 731.774 160.339 731.774 154.17H728.349ZM732.704 169.017C735.697 172.229 739.837 173.742 744.881 173.742V170.318C740.552 170.318 737.41 169.044 735.209 166.683L732.704 169.017ZM744.881 173.742C749.926 173.742 754.066 172.229 757.059 169.017L754.554 166.683C752.353 169.044 749.211 170.318 744.881 170.318V173.742ZM757.059 169.017C760.094 165.76 761.414 160.668 761.414 154.17H757.989C757.989 160.339 756.712 164.366 754.554 166.683L757.059 169.017ZM761.414 154.17V117.5H757.989V154.17H761.414ZM759.701 119.212H774.901V115.788H759.701V119.212ZM773.189 117.5V154.74H776.614V117.5H773.189ZM773.189 154.74C773.189 164.181 770.622 171.192 765.718 176.037L768.125 178.473C773.861 172.805 776.614 164.806 776.614 154.74H773.189ZM765.718 176.037C760.797 180.9 753.897 183.428 744.786 183.428V186.852C754.55 186.852 762.406 184.124 768.125 178.473L765.718 176.037ZM790.11 184H788.398V185.712H790.11V184ZM790.11 117.5V115.788H788.398V117.5H790.11ZM841.41 122.25L840.376 123.615L840.386 123.622L841.41 122.25ZM845.21 143.91L846.629 144.868L846.634 144.86L846.64 144.852L845.21 143.91ZM838.18 149.8L838.905 151.351L838.18 149.8ZM827.92 151.89L826.366 151.17L825.239 153.602H827.92V151.89ZM829.725 147.995V146.283H828.631L828.171 147.275L829.725 147.995ZM840.84 150.085L840.161 151.657L840.175 151.663L840.188 151.668L840.84 150.085ZM848.345 156.07L846.92 157.02L846.928 157.031L846.936 157.043L848.345 156.07ZM844.355 179.25L845.34 180.65L845.347 180.645L845.353 180.641L844.355 179.25ZM805.405 172.41H803.693V174.122H805.405V172.41ZM832.385 170.51L833.292 171.962L833.304 171.954L832.385 170.51ZM832.385 158.065L831.415 159.476L831.44 159.493L831.465 159.509L832.385 158.065ZM804.265 155.975H802.552V157.687H804.265V155.975ZM804.265 144.765V143.053H802.552V144.765H804.265ZM829.25 142.865L830.178 144.304L830.189 144.296L829.25 142.865ZM829.25 131.085L828.289 132.502L828.315 132.52L828.342 132.537L829.25 131.085ZM805.405 129.09V127.378H803.693V129.09H805.405ZM791.822 184V117.5H788.398V184H791.822ZM790.11 119.212H822.6V115.788H790.11V119.212ZM822.6 119.212C830.792 119.212 836.624 120.772 840.376 123.615L842.443 120.885C837.836 117.394 831.127 115.788 822.6 115.788V119.212ZM840.386 123.622C844.206 126.473 846.062 130.149 846.062 134.79H849.487C849.487 129.044 847.1 124.36 842.434 120.878L840.386 123.622ZM846.062 134.79C846.062 137.98 845.284 140.684 843.78 142.968L846.64 144.852C848.555 141.943 849.487 138.566 849.487 134.79H846.062ZM843.791 142.952C842.267 145.209 840.172 146.977 837.454 148.249L838.905 151.351C842.141 149.836 844.732 147.677 846.629 144.868L843.791 142.952ZM837.454 148.249C834.741 149.519 831.576 150.178 827.92 150.178V153.602C831.99 153.602 835.665 152.867 838.905 151.351L837.454 148.249ZM829.473 152.61L831.278 148.715L828.171 147.275L826.366 151.17L829.473 152.61ZM829.725 149.707C833.715 149.707 837.182 150.372 840.161 151.657L841.518 148.513C838.037 147.012 834.095 146.283 829.725 146.283V149.707ZM840.188 151.668C843.133 152.881 845.353 154.669 846.92 157.02L849.769 155.12C847.789 152.151 845.006 149.949 841.492 148.502L840.188 151.668ZM846.936 157.043C848.539 159.365 849.388 162.27 849.388 165.855H852.812C852.812 161.713 851.824 158.095 849.753 155.097L846.936 157.043ZM849.388 165.855C849.388 171.023 847.389 174.962 843.356 177.859L845.353 180.641C850.313 177.078 852.812 172.087 852.812 165.855H849.388ZM843.369 177.85C839.285 180.726 833.078 182.288 824.5 182.288V185.712C833.401 185.712 840.43 184.108 845.34 180.65L843.369 177.85ZM824.5 182.288H790.11V185.712H824.5V182.288ZM805.405 174.122H823.36V170.698H805.405V174.122ZM823.36 174.122C827.479 174.122 830.867 173.478 833.292 171.962L831.477 169.058C829.849 170.076 827.22 170.698 823.36 170.698V174.122ZM833.304 171.954C835.969 170.258 837.232 167.572 837.232 164.24H833.807C833.807 166.608 832.98 168.102 831.465 169.066L833.304 171.954ZM837.232 164.24C837.232 160.954 835.956 158.309 833.304 156.621L831.465 159.509C832.993 160.481 833.807 161.952 833.807 164.24H837.232ZM833.355 156.654C830.915 154.977 827.499 154.263 823.36 154.263V157.687C827.2 157.687 829.801 158.366 831.415 159.476L833.355 156.654ZM823.36 154.263H804.265V157.687H823.36V154.263ZM805.977 155.975V144.765H802.552V155.975H805.977ZM804.265 146.477H820.7V143.053H804.265V146.477ZM820.7 146.477C824.586 146.477 827.818 145.826 830.178 144.304L828.321 141.426C826.755 142.437 824.287 143.053 820.7 143.053V146.477ZM830.189 144.296C832.751 142.615 834.002 140.05 834.002 136.88H830.578C830.578 139.03 829.802 140.455 828.31 141.434L830.189 144.296ZM834.002 136.88C834.002 133.754 832.734 131.244 830.157 129.633L828.342 132.537C829.818 133.46 830.578 134.812 830.578 136.88H834.002ZM830.21 129.668C827.843 128.064 824.597 127.378 820.7 127.378V130.802C824.276 130.802 826.73 131.446 828.289 132.502L830.21 129.668ZM820.7 127.378H805.405V130.802H820.7V127.378ZM803.693 129.09V172.41H807.117V129.09H803.693Z" fill="white" mask="url(#path-1-outside-1_343_4192)"/>
</svg>
